<svg width="390" height="307" viewBox="0 0 390 307" fill="none" xmlns="http://www.w3.org/2000/svg">
<g clip-path="url(#clip0_3908_3022)">
<path d="M379.675 137.614C379.344 140.989 378.821 144.329 378.132 147.634C374.957 162.823 368.151 177.211 358.942 190.419C345.964 209.023 328.206 225.281 309.091 238.089C301.039 242.471 292.181 246.28 282.689 249.434C230.958 266.637 160.347 264.353 97.9122 228.325C92.1605 225.005 86.4846 221.403 80.8983 217.504L81.5251 217.173C80.4574 216.731 79.3966 216.235 78.3496 215.676C72.8528 211.611 67.7555 207.084 63.1404 202.04C62.5136 201.35 61.8936 200.66 61.2875 199.949C57.4163 195.47 53.9171 190.605 50.8449 185.319C43.323 171.732 37.4404 155.225 34.1341 137.939C25.8062 94.4297 33.7759 46.021 72.9217 26.9888C145.324 -8.20496 322.827 -8.01174 369.543 85.4932C378.456 103.366 381.328 120.901 379.675 137.614Z" fill="url(#paint0_linear_3908_3022)"/>
<path d="M282.682 249.434C230.951 266.638 160.34 264.353 97.9053 228.325C92.1537 225.005 86.4778 221.403 80.8914 217.504L81.5182 217.173C80.4506 216.731 79.3898 216.235 78.3428 215.676C72.846 211.611 67.7487 207.084 63.1336 202.04C62.5067 201.35 61.8868 200.66 61.2806 199.949C110.628 203.579 206.629 204.234 241.132 159.276C288.399 97.673 255.37 65.5708 215.618 58.5735C175.866 51.583 245.665 36.1254 245.665 36.1254C245.665 36.1254 319.32 43.4954 330.59 89.7924C338.738 123.261 336.803 192.393 282.682 249.434Z" fill="url(#paint1_linear_3908_3022)"/>
<path d="M296.304 92.1524C295.795 89.7993 294.879 87.4047 293.591 85.0447L295.898 83.7818C297.31 86.3627 298.309 88.9919 298.874 91.5935L296.304 92.1524ZM290.332 80.1176C288.562 77.8334 286.399 75.5217 283.906 73.2513L285.676 71.3053C288.28 73.6792 290.546 76.1013 292.413 78.5028L290.332 80.1176ZM279.277 69.3593C276.921 67.5237 274.303 65.6743 271.486 63.8663L272.905 61.6512C275.784 63.5075 278.471 65.3983 280.889 67.2822L279.277 69.3593ZM266.299 60.692C263.661 59.1531 260.83 57.6142 257.889 56.1168L259.08 53.7705C262.07 55.2956 264.942 56.8552 267.622 58.4216L266.299 60.692ZM252.399 53.4255C249.595 52.1006 246.647 50.7825 243.637 49.499L244.663 47.0768C247.708 48.3673 250.691 49.706 253.522 51.0447L252.399 53.4255ZM237.982 47.1734C235.047 46.0072 232.024 44.8617 228.993 43.7714L229.881 41.294C232.94 42.3981 235.991 43.5505 238.953 44.7306L237.982 47.1734ZM223.207 41.7563C217.634 39.8793 214.059 38.8718 214.025 38.8649L214.734 36.3324C214.769 36.3393 218.406 37.3675 224.047 39.2652L223.207 41.7563Z" fill="url(#paint2_linear_3908_3022)"/>
<path d="M180.417 257.667L179.281 255.293C180.713 254.603 183.73 253.126 187.836 250.932L189.069 253.257C184.922 255.472 181.864 256.977 180.417 257.667ZM194.483 250.297L193.202 247.999C195.978 246.439 198.774 244.818 201.516 243.175L202.866 245.432C200.111 247.095 197.286 248.73 194.483 250.297ZM208.122 242.202L206.723 239.973C209.458 238.255 212.165 236.488 214.769 234.729L216.236 236.909C213.611 238.69 210.877 240.47 208.122 242.202ZM221.313 233.404L219.797 231.258C222.442 229.381 225.039 227.462 227.519 225.558L229.117 227.648C226.61 229.567 223.985 231.506 221.313 233.404ZM233.959 223.812L232.306 221.769C234.834 219.713 237.286 217.622 239.594 215.551L241.343 217.511C239.008 219.609 236.522 221.728 233.959 223.812ZM245.883 213.302L244.064 211.404C246.42 209.141 248.673 206.836 250.753 204.566L252.688 206.346C250.567 208.658 248.28 210.997 245.883 213.302ZM256.773 201.709L254.776 199.997C256.821 197.603 258.853 195.098 260.823 192.558L262.897 194.173C260.899 196.747 258.84 199.28 256.773 201.709ZM266.61 189.239L264.488 187.686C266.362 185.119 268.208 182.469 269.971 179.819L272.161 181.276C270.377 183.96 268.511 186.637 266.61 189.239ZM275.509 176.079L273.284 174.685C274.979 171.966 276.625 169.192 278.175 166.439L280.462 167.729C278.891 170.517 277.224 173.326 275.509 176.079ZM283.41 162.298L281.082 161.077C282.576 158.22 284.002 155.329 285.311 152.486L287.694 153.59C286.365 156.467 284.925 159.4 283.41 162.298ZM290.188 147.917L287.763 146.896C289.017 143.901 290.174 140.892 291.194 137.96L293.673 138.829C292.633 141.817 291.462 144.874 290.188 147.917ZM295.588 132.936L293.074 132.177C294.011 129.044 294.817 125.938 295.464 122.937L298.034 123.489C297.365 126.566 296.546 129.741 295.588 132.936ZM299.163 117.382L296.566 116.981C297.062 113.738 297.379 110.557 297.503 107.527L300.128 107.631C300.004 110.757 299.68 114.042 299.163 117.382ZM297.489 101.496C297.338 98.232 296.938 95.0921 296.305 92.1524L298.874 91.5935C299.542 94.6781 299.962 97.9629 300.121 101.372L297.489 101.496Z" fill="url(#paint3_linear_3908_3022)"/>
<path d="M369.529 85.4932C322.82 -8.01174 145.317 -8.20496 72.9148 26.9888C25.6891 49.9406 23.8362 115.656 41.229 163.934C50.597 157.364 50.9689 142.555 49.7635 131.742C48.0414 127.022 47.4215 123.026 47.5868 119.61C47.4973 119.272 47.4491 119.086 47.4491 119.086L47.6144 119.155C48.5443 105.816 61.5217 101.455 66.3228 97.2383C72.8942 91.4693 65.3791 63.0796 70.7037 55.4129C79.4173 42.8674 108.493 48.0636 125.451 55.3094C139.669 61.3821 141.26 67.3512 155.463 71.5123C169.825 75.7218 182.403 73.7827 191.999 71.9126C248.62 60.8783 258.628 41.1422 287.221 43.9301C315.477 46.6904 346.515 69.9459 352.019 95.8098C356.131 115.118 345.262 132.356 355.415 142.507C361.573 148.663 371.657 148.421 378.132 147.627C382.244 127.967 380.261 106.975 369.529 85.4932Z" fill="url(#paint4_linear_3908_3022)"/>
<path d="M379.675 137.615C370.955 138.346 361.421 137.069 360.188 128.374C357.853 111.902 364.218 77.6816 343.285 61.596C320.581 44.144 290.528 28.6588 269.071 37.2571C247.614 45.8554 223.905 59.2704 214.378 61.2095C202.4 63.6455 188.1 58.677 182.913 60.7196C177.719 62.7691 164.645 70.9534 151.62 65.1085C138.594 59.2635 121.711 50.8101 109.071 42.8812C89.1022 30.3494 60.3507 33.5238 55.6805 51.9488C51.0103 70.3737 58.6217 79.7104 52.4774 91.5659C46.3331 103.421 36.4072 109.887 37.5782 122.592C38.0122 127.298 36.3659 132.825 34.1134 137.932C25.7856 94.4228 33.7552 46.0141 72.901 26.9819C145.303 -8.21189 322.806 -8.01868 369.522 85.4863C378.456 103.366 381.328 120.901 379.675 137.615Z" fill="url(#paint5_linear_3908_3022)"/>
<path d="M343.984 91.8833C329.002 81.6219 323.223 77.233 316.018 74.6936C306.746 71.4295 296.641 72.1334 286.819 71.9471C256.132 71.3536 262.538 81.0629 250.029 87.874C242.961 91.7177 237.161 89.9994 234.695 100.702C233.697 105.022 233.332 109.66 234.895 113.814C237.554 120.901 245.269 124.938 252.763 125.904C260.258 126.87 267.821 125.428 275.364 124.917C295.002 123.585 306.836 128.713 315.446 130.307C329.843 132.97 342.524 131.425 347.883 117.789C351.644 108.224 352.822 98.3217 344.459 92.2145C344.301 92.0972 344.143 91.9868 343.984 91.8833Z" fill="url(#paint6_linear_3908_3022)"/>
<path d="M341.677 88.288C326.696 78.0266 323.231 77.2261 316.019 74.6867C306.747 71.4226 294.183 68.3587 284.436 69.587C263.296 72.2507 260.224 77.4608 247.722 84.2718C240.655 88.1155 228.228 97.6937 232.582 110.212C235.068 117.361 242.955 121.336 250.45 122.302C257.944 123.268 265.507 121.826 273.043 121.315C292.681 119.983 304.515 125.11 313.126 126.704C327.522 129.368 340.203 127.822 345.562 114.187C349.323 104.622 350.501 94.7195 342.139 88.6124C341.987 88.5089 341.836 88.3984 341.677 88.288Z" fill="white"/>
<path d="M195.812 201.267C211.917 192.882 218.178 189.218 225.638 187.562C235.233 185.437 245.18 187.355 254.961 188.342C285.497 191.44 277.975 200.315 289.575 208.575C296.132 213.24 302.091 212.232 303.262 223.156C303.73 227.566 303.544 232.217 301.498 236.15C298.006 242.865 289.864 245.949 282.308 246.004C274.751 246.066 267.415 243.72 259.99 242.306C240.654 238.621 228.29 242.292 219.556 242.837C204.946 243.748 192.54 240.691 188.855 226.51C186.272 216.559 186.286 206.587 195.316 201.536C195.475 201.446 195.64 201.357 195.812 201.267Z" fill="url(#paint7_linear_3908_3022)"/>
<path d="M198.533 197.975C214.638 189.591 218.178 189.211 225.638 187.555C235.234 185.43 248.073 183.898 257.6 186.292C278.264 191.482 280.689 197.023 292.289 205.283C298.846 209.948 310.04 220.948 304.212 232.858C300.885 239.656 292.578 242.657 285.022 242.713C277.465 242.775 270.129 240.429 262.704 239.014C243.369 235.329 231.004 239 222.27 239.545C207.66 240.456 195.254 237.399 191.569 223.218C188.986 213.267 189 203.296 198.03 198.244C198.196 198.155 198.368 198.065 198.533 197.975Z" fill="white"/>
<path d="M190.054 6.06575C182.325 3.89202 174.183 3.82301 166.158 3.81611C151.114 3.80921 141.547 9.4057 131.717 13.0907C127.205 14.7814 122.494 16.5825 119.325 20.2123C115.13 25.0152 114.462 32.8337 118.237 37.9817C129.107 52.8045 140.376 40.8041 162.439 48.9607C166.971 50.6376 186.265 62.0583 215.616 58.5666C228.077 57.0829 243.63 50.7894 248.466 39.9277C250.174 36.0909 250.401 31.4467 248.383 27.7548C243.706 19.2186 228.938 18.2317 219.28 17.8591C211.917 17.5831 204.174 10.0337 190.054 6.06575Z" fill="url(#paint8_linear_3908_3022)"/>
<path d="M187.25 2.24965C179.521 0.0759145 171.38 0.00690711 163.355 6.37559e-06C148.311 -0.00689436 138.743 5.5896 128.914 9.2746C124.402 10.9653 119.69 12.7664 116.522 16.3962C112.327 21.1991 111.659 29.0176 115.433 34.1656C126.303 48.9883 137.572 36.988 159.635 45.1446C164.168 46.8215 183.462 58.2422 212.812 54.7505C225.273 53.2668 240.827 46.9733 245.662 36.1116C247.371 32.2748 247.598 27.6306 245.587 23.9387C240.909 15.4025 226.141 14.4156 216.484 14.043C209.106 13.767 201.371 6.21757 187.25 2.24965Z" fill="white"/>
<path d="M296.986 92.7252C296.986 92.7252 291.634 83.7681 288.251 82.5121C288.251 82.5121 295.367 81.132 301.787 80.8077C308.207 80.4764 315.274 80.6144 316.762 81.3942C318.25 82.1671 329.918 90.3928 329.918 90.3928C327.976 92.7252 305.479 95.3406 296.986 92.7252Z" fill="url(#paint9_linear_3908_3022)"/>
<path d="M258.804 89.7855C258.804 89.7855 262.434 82.8296 268.613 81.9187C274.792 81.0078 281.446 81.3114 284.952 82.3948C288.451 83.4782 290.311 84.2166 292.777 88.3294C295.243 92.4423 295.973 94.2158 295.973 94.2158L258.177 92.1386L258.804 89.7855Z" fill="url(#paint10_linear_3908_3022)"/>
<path d="M287.852 117.14L277.74 115.946C277.74 115.946 271.706 100.758 278.181 98.4183C284.656 96.079 289.753 105.464 287.852 117.14Z" fill="url(#paint11_linear_3908_3022)"/>
<path d="M253.493 109.045L248.782 108.204C248.782 108.204 246.364 95.734 248.982 94.685C252.626 93.2221 254.575 102.379 253.493 109.045Z" fill="url(#paint12_linear_3908_3022)"/>
<path d="M281.825 122.523C286.364 121.094 285.641 101.324 280.764 100.558C280.475 100.509 279.242 100.599 285.551 100.316C287.873 100.213 289.202 105.291 289.588 107.596C290.731 114.435 289.285 122.24 286.536 122.364C280.137 122.647 281.48 122.633 281.825 122.523Z" fill="url(#paint13_linear_3908_3022)"/>
<path d="M281.012 100.62C278.835 99.9021 277.051 104.222 277.024 110.267C277.003 116.312 278.753 121.791 280.929 122.509C283.106 123.227 284.89 118.907 284.918 112.862C284.938 106.817 283.189 101.337 281.012 100.62Z" fill="url(#paint14_linear_3908_3022)"/>
<path d="M321.625 107.741C321.625 99.619 326.392 97.5005 328.747 97.9077C329.147 97.887 330.394 97.8387 333.659 97.7006C336.621 97.5695 340.76 101.406 340.754 108.949C340.747 114.566 338.164 119.976 334.644 119.748C329.092 119.997 328.093 120.018 328.155 119.949C323.078 119.88 321.625 113.469 321.625 107.741Z" fill="url(#paint15_linear_3908_3022)"/>
<path d="M249.939 96.9485C254.658 96.8381 254.754 96.6172 255.443 97.4315C258.109 100.585 258.274 112.91 255.65 115.456C255.133 115.96 255.278 115.822 250.421 115.946C254.134 115.85 253.831 96.8519 249.939 96.9485Z" fill="url(#paint16_linear_3908_3022)"/>
<path d="M250.277 97.0034C248.672 96.4445 247.322 100.219 247.273 105.436C247.218 110.653 248.486 115.332 250.091 115.891C251.703 116.45 253.046 112.675 253.094 107.458C253.149 102.241 251.889 97.5624 250.277 97.0034Z" fill="url(#paint17_linear_3908_3022)"/>
<path d="M247.521 101.931C248.348 99.0118 248.382 94.7747 251.331 96.7897C252.446 97.5488 253.032 99.7847 253.301 102.855C253.459 104.67 253.507 106.775 253.493 109.045L277.74 115.946C277.74 115.946 277.017 114.076 276.858 110.212C276.783 108.245 276.845 106.023 277.223 103.808C277.485 102.269 278.091 99.6052 280.406 99.274C284.711 99.5362 286.543 105.298 287.322 110.584C287.687 113.089 287.818 115.491 287.859 117.14L299.011 118.292C307.566 118.141 330.903 115.325 336.352 114.235C341.801 113.144 342.965 109.059 342.965 109.059C344.129 104.843 342 98.9014 340.113 94.9334C338.818 92.2077 330.6 89.7924 330.6 89.7924C324.415 92.6355 302.538 92.9391 299.72 92.7804L299.714 92.7252C299.7 92.7252 293.115 92.7114 293.115 92.7252C285.138 92.6631 282.762 92.6424 282.762 92.6424C282.341 92.6217 261.505 91.6901 259.941 91.6901C258.301 91.6901 256.745 90.6481 256.745 90.6481L254.671 92.0351C250.352 92.2491 248.665 93.5947 248.665 93.5947C246.275 96.0169 247.521 101.931 247.521 101.931Z" fill="url(#paint18_linear_3908_3022)"/>
<path d="M268.937 81.2424H280.592L289.016 82.6363C289.016 82.6363 309.288 80.711 316.493 82.0084C317.134 82.2361 317.699 82.4776 318.195 82.7468C320.826 84.4305 326.95 88.6193 329.05 90.3859L330.587 89.7924C330.587 89.7924 320.158 81.4494 316.004 80.6696C314.062 80.3039 310.748 79.393 307.105 78.9928C304.446 78.4959 276.211 79.1791 268.937 81.2424Z" fill="url(#paint19_linear_3908_3022)"/>
<path d="M293.307 92.7252L292.963 91.9455C291.475 89.5785 289.829 84.327 287.108 83.5886C285.489 83.1539 282.576 82.4569 279.249 82.0636L273.373 92.2215C273.373 92.2215 272.822 92.2008 272.546 92.187L278.67 82.0015C273.752 81.4839 268.062 81.6771 264.301 84.3132C263.309 85.0102 262.428 85.721 261.649 86.418L260.347 91.697C260.154 91.6901 260.01 91.6901 259.92 91.6901C258.281 91.6901 256.724 90.6481 256.724 90.6481L256.648 90.6964C257.234 89.7165 259.328 86.7009 264.632 82.9814C271.114 78.4338 284.863 81.8566 289.009 82.6363C293.149 83.4161 299.665 92.6907 299.693 92.7252H293.307Z" fill="url(#paint20_linear_3908_3022)"/>
<path d="M287.315 110.584C287.68 113.089 287.811 115.491 287.852 117.14L299.004 118.292C307.559 118.141 330.897 115.325 336.345 114.235C341.794 113.145 342.958 109.059 342.958 109.059C343.516 107.03 343.302 104.643 342.786 102.359C340.444 102.98 335.705 104.022 327.597 104.919C315.067 106.306 295.815 105.181 295.815 105.181L295.698 106.913C296.304 110.633 294.403 109.68 292.24 110.115C291 110.357 288.885 110.502 287.315 110.584Z" fill="url(#paint21_linear_3908_3022)"/>
<path d="M276.039 92.3388C276.211 92.3664 289.939 94.5539 293.163 96.8311C296.407 99.1222 295.808 105.167 295.808 105.167C295.808 105.167 315.054 106.292 327.59 104.905C335.691 104.008 340.437 102.973 342.779 102.345C342.482 101.047 342.083 99.7778 341.663 98.6391C341.353 97.7903 341.036 97.0037 340.74 96.3274C340.506 95.7891 340.292 95.3199 340.106 94.9265C338.811 92.2007 330.593 89.7855 330.593 89.7855C330.593 89.7855 337.971 92.9046 338.418 96.8242C338.866 100.744 336.517 101.586 336.517 101.586C336.517 101.586 323.381 102.973 317.154 103.249C310.928 103.525 309.378 97.5143 307.297 96.8173C305.224 96.1204 293.073 92.7114 293.073 92.7114C292.853 92.7114 282.755 92.6286 282.755 92.6286C282.672 92.6355 279.765 92.5044 276.039 92.3388Z" fill="url(#paint22_linear_3908_3022)"/>
<path d="M253.493 109.045L277.74 115.946C277.74 115.946 277.017 114.076 276.858 110.212L253.466 104.67C253.617 106.485 253.507 106.775 253.493 109.045Z" fill="url(#paint23_linear_3908_3022)"/>
<path d="M259.81 91.56C259.81 91.56 256.676 91.7118 256.221 90.8697C255.767 90.0276 255.574 88.2398 257.323 88.0465C259.073 87.8532 260.437 88.6332 260.437 88.6332L259.81 91.56Z" fill="url(#paint24_linear_3908_3022)"/>
<path d="M259.514 91.2355C259.514 91.2355 256.951 91.3597 256.579 90.6694C256.207 89.9792 256.049 88.5158 257.482 88.3571C258.915 88.1983 260.03 88.8333 260.03 88.8333L259.514 91.2355Z" fill="url(#paint25_linear_3908_3022)"/>
<path d="M307.78 100.316C307.78 100.316 297.902 100.385 296.758 100.316C295.615 100.247 298.239 102.808 298.239 102.808L309.405 102.352L307.78 100.316Z" fill="url(#paint26_linear_3908_3022)"/>
<path d="M338.563 99.3439L341.656 98.6398C341.346 97.7908 341.029 97.0039 340.733 96.3274C339.583 96.5828 338.804 96.7554 338.804 96.7554L338.563 99.3439Z" fill="url(#paint27_linear_3908_3022)"/>
<path d="M280.984 106.796C280.075 106.499 279.331 108.3 279.324 110.819C279.317 113.338 280.041 115.622 280.95 115.925C281.859 116.222 282.603 114.421 282.61 111.902C282.624 109.377 281.894 107.093 280.984 106.796Z" fill="url(#paint28_linear_3908_3022)"/>
<path d="M250.228 102.165C249.533 101.924 248.954 103.552 248.933 105.802C248.913 108.052 249.457 110.074 250.146 110.308C250.842 110.55 251.42 108.921 251.441 106.672C251.461 104.429 250.917 102.407 250.228 102.165Z" fill="url(#paint29_linear_3908_3022)"/>
<path d="M126.09 29.756L137.18 28.438C137.18 28.438 140.224 14.8504 132.509 16.2581C124.781 17.659 124.057 25.4499 126.09 29.756Z" fill="url(#paint30_linear_3908_3022)"/>
<path d="M183.799 35.5043L195.075 34.2001C195.075 34.2001 198.12 20.6125 190.405 22.0203C182.683 23.4211 181.864 26.8232 183.799 35.5043Z" fill="url(#paint31_linear_3908_3022)"/>
<path d="M217.365 27.7065C217.365 27.7065 222.428 25.0635 225.707 24.9462C228.986 24.8288 231.486 26.761 231.486 26.761C231.486 26.761 233.842 28.4034 233.319 30.9222C232.795 33.441 224.013 34.7314 219.156 33.9723C214.3 33.2132 214.707 31.6882 214.886 30.4529C215.051 29.2246 217.365 27.7065 217.365 27.7065Z" fill="url(#paint32_linear_3908_3022)"/>
<path d="M198.23 31.633C198.003 26.8715 194.2 23.3314 190.164 23.7938C188.834 23.9456 192.285 23.4004 192.967 23.4004C201.557 23.3935 203.203 37.8575 194.593 39.2928L192.492 39.6447C195.778 39.0996 198.43 35.8562 198.23 31.633Z" fill="url(#paint33_linear_3908_3022)"/>
<path d="M191.287 23.7662C187.381 23.5109 184.157 26.8716 184.095 31.2812C184.026 35.6838 187.14 39.4654 191.052 39.7208C194.958 39.9761 198.182 36.6154 198.244 32.2059C198.306 27.7963 195.192 24.0216 191.287 23.7662Z" fill="url(#paint34_linear_3908_3022)"/>
<path d="M191.252 26.3056C188.586 26.1331 186.396 28.4241 186.348 31.426C186.3 34.4278 188.428 37.0018 191.087 37.1812C193.753 37.3537 195.943 35.0627 195.991 32.0608C196.033 29.0521 193.911 26.4781 191.252 26.3056Z" fill="url(#paint35_linear_3908_3022)"/>
<path d="M130.567 20.7919C131.676 20.6332 132.33 20.4331 133.122 20.4331C133.24 20.4331 133.35 20.4331 133.467 20.44C136.656 20.647 139.218 23.7385 139.163 27.3545C139.115 30.5082 137.097 33.0062 134.452 33.4479L132.73 33.7377C135.375 33.2961 137.393 30.798 137.441 27.6444C137.503 23.5591 134.218 20.1847 130.567 20.7919Z" fill="url(#paint36_linear_3908_3022)"/>
<path d="M131.752 20.7368C128.549 20.5298 125.91 23.2832 125.862 26.8923C125.807 30.5013 128.356 33.5929 131.559 33.8068C134.762 34.0138 137.4 31.2604 137.448 27.6513C137.503 24.0423 134.948 20.9438 131.752 20.7368Z" fill="url(#paint37_linear_3908_3022)"/>
<path d="M131.717 22.9587C129.609 22.8207 127.867 24.6356 127.832 27.0164C127.798 29.3971 129.479 31.4397 131.586 31.5778C133.694 31.7158 135.437 29.9009 135.471 27.5201C135.506 25.1394 133.825 23.0968 131.717 22.9587Z" fill="url(#paint38_linear_3908_3022)"/>
<path d="M202.397 13.6429C202.397 13.6429 185.838 3.84381 178.399 3.84381L198.898 13.4565L202.397 13.6429Z" fill="url(#paint39_linear_3908_3022)"/>
<path d="M200.214 13.4151L179.549 14.1604C172.895 8.12916 170.098 5.41027 165.352 4.42347L178.908 3.8576C187.96 5.30676 199.132 12.8355 200.214 13.4151Z" fill="url(#paint40_linear_3908_3022)"/>
<path d="M123.334 26.7681C123.92 28.583 126.083 29.7561 126.083 29.7561C125.8 28.8521 125.545 27.4582 125.628 26.0159C125.78 23.2625 127.13 20.309 131.759 20.1572C135.616 20.0261 137.09 23.1314 137.889 25.8089C138.082 26.4438 138.144 27.0924 138.137 27.7066C138.13 27.9826 138.116 28.2517 138.082 28.514C137.896 30.1426 137.283 31.3985 137.283 31.3985L183.778 35.5113C183.785 35.5113 183.785 35.5113 183.785 35.5113C183.572 33.9863 183.51 32.5716 183.586 31.3157C183.654 30.1495 183.847 29.1212 184.15 28.2655C185.838 23.5592 190.591 21.7789 195.034 24.0768C198.512 25.871 199.449 29.6112 199.601 32.5854C199.718 34.9662 199.332 36.8639 199.332 36.8639C226.093 39.569 233.697 34.0622 233.697 34.0622V28.0654C233.05 20.9784 223.785 17.7695 222.793 17.4452C230.598 20.0882 231.404 26.6991 231.473 26.775C232.547 28.1551 233.057 30.0459 233.057 30.0459C232.582 30.8809 231.493 32.0127 229.447 32.5647C224.646 33.8621 218.702 33.6964 215.244 31.1225C215.464 30.108 215.988 29.2593 216.463 28.6589C216.932 28.0585 217.352 27.7135 217.352 27.7135C216.188 26.7681 214.08 23.6559 211.593 22.186C210.36 21.4959 208.948 20.7575 207.329 20.1641C203.52 18.7563 199.477 18.0663 195.681 17.5487C191.893 17.0311 188.325 16.7758 185.383 16.5067C183.902 16.279 182.525 16.0029 181.912 15.6924C180.272 14.8712 172.84 7.22519 168.569 5.34818C164.299 3.47118 157.052 3.69891 150.398 4.23716C140.83 5.01005 133.983 9.48173 131.814 10.8274C129.651 12.173 126.785 13.4704 125.318 14.9885C123.954 16.4032 123.286 20.0261 123.128 22.9589C123.038 24.6427 123.121 26.0987 123.334 26.7681Z" fill="url(#paint41_linear_3908_3022)"/>
<path d="M199.367 20.2675C199.794 19.8327 206.303 21.6062 208.673 22.7103C211.042 23.8145 214.782 25.9813 214.782 25.9813C214.782 25.9813 210.381 26.2159 206.213 25.4982C202.377 24.8358 198.464 21.1853 199.367 20.2675Z" fill="url(#paint42_linear_3908_3022)"/>
<path d="M199.366 20.2675C199.67 19.743 206.303 21.1232 208.672 22.2273C211.042 23.3314 214.376 25.6776 214.376 25.6776C214.376 25.6776 210.291 25.4844 206.124 24.7668C202.294 24.1112 199.015 20.8747 199.366 20.2675Z" fill="url(#paint43_linear_3908_3022)"/>
<path d="M179.983 14.1603C180.858 14.9332 181.547 15.4922 181.926 15.6785C182.545 15.989 183.923 16.265 185.397 16.4928C191.039 17.0034 196.294 17.3692 201.915 18.632C203.741 19.0391 205.566 19.5429 207.357 20.1571C211.531 21.5924 215.533 26.209 217.359 27.7065C217.923 27.5891 218.474 27.4718 219.012 27.3614C223.427 26.4436 227.057 25.8157 231.473 26.768C231.473 26.768 230.432 20.019 222.711 17.4106C214.989 14.8021 200.214 13.415 200.214 13.415L179.983 14.1603Z" fill="url(#paint44_linear_3908_3022)"/>
<path d="M177.097 15.2713C168.287 15.5819 144.543 13.5531 142.215 13.3805C139.887 13.208 135.086 12.6353 135.368 10.6064L176.105 13.9671L177.097 15.2713Z" fill="url(#paint45_linear_3908_3022)"/>
<path d="M176.277 14.1603C176.277 14.1603 168.872 5.77591 162.053 5.06514C154.4 4.26465 141.326 5.04444 135.671 10.1234C134.397 11.2689 137.297 12.4075 140.892 12.5869C146.582 12.8699 176.277 14.1603 176.277 14.1603Z" fill="url(#paint46_linear_3908_3022)"/>
<path d="M176.105 13.9671H173.253C173.253 13.9671 173.825 11.9866 172.551 11.3724C171.276 10.7583 165.552 10.5305 164.912 12.166C164.553 13.0769 165.607 13.8291 167.798 14.3604C169.899 14.8711 173.053 15.1816 177.09 15.2713L176.105 13.9671Z" fill="url(#paint47_linear_3908_3022)"/>
<path d="M155.454 3.91284C160.09 3.92664 162.804 3.97496 165.421 4.52717L178.922 3.85762C178.24 3.74717 177.572 3.67124 176.925 3.63673C174.204 3.49177 170.16 3.44346 165.979 3.5608C162.57 3.65744 159.181 3.91284 155.454 3.91284Z" fill="url(#paint48_linear_3908_3022)"/>
<path d="M199.339 36.8499C226.1 39.555 233.704 34.0482 233.704 34.0482V32.0884C232.595 32.8406 231.032 33.6204 228.862 34.1932C222.952 35.7596 214.376 33.7446 214.376 33.7446L199.608 32.5715C199.732 34.9591 199.339 36.8499 199.339 36.8499Z" fill="url(#paint49_linear_3908_3022)"/>
<path d="M151.769 32.7441C151.769 32.7441 151.011 20.723 151.535 14.1604C152.058 7.59784 154.021 4.00946 154.021 4.00946H154.71C154.71 4.00946 153.133 7.59094 152.602 14.1604C152.072 20.7299 152.602 32.7441 152.602 32.7441H151.769Z" fill="url(#paint50_linear_3908_3022)"/>
<path d="M183.799 35.5043C183.586 33.9792 183.524 32.5646 183.599 31.3086L138.144 27.7065C138.116 29.7077 137.29 31.3914 137.29 31.3914L183.799 35.5043Z" fill="url(#paint51_linear_3908_3022)"/>
<path d="M123.334 26.768C123.92 28.5828 126.083 29.756 126.083 29.756C125.8 28.852 125.545 27.458 125.628 26.0158C125.628 26.0158 123.396 25.1877 123.134 22.9587V22.9518C123.045 24.6425 123.121 26.0986 123.334 26.768Z" fill="url(#paint52_linear_3908_3022)"/>
<path d="M197.438 17.7901C198.912 18.0247 200.414 18.3008 201.915 18.6389C203.741 19.046 205.566 19.5498 207.357 20.164C211.531 21.5993 215.533 26.2159 217.359 27.7134C217.923 27.596 218.474 27.4787 219.012 27.3683C213.797 20.4676 204.863 18.908 197.438 17.7901Z" fill="url(#paint53_linear_3908_3022)"/>
<path d="M128.289 236.433L136.466 247.654L179.607 222.521C183.016 220.534 186.185 215.531 184.284 211.535C182.155 207.084 175.322 208.154 171.044 210.707L128.289 236.433Z" fill="url(#paint54_linear_3908_3022)"/>
<path d="M136.886 202.854L145.062 214.075L188.203 188.942C191.613 186.955 194.781 181.952 192.88 177.956C190.752 173.505 183.919 174.575 179.641 177.128L136.886 202.854Z" fill="url(#paint55_linear_3908_3022)"/>
<path d="M126.815 185.823L134.992 197.044L178.133 171.911C181.542 169.924 184.711 164.921 182.81 160.925C180.681 156.474 173.848 157.544 169.57 160.097L126.815 185.823Z" fill="url(#paint56_linear_3908_3022)"/>
<path d="M93.366 165.507L49.7497 210.887L17.2924 271.033L-3.64786 257.729L-20.3656 264.954C-23.3826 266.672 -24.7396 270.302 -23.5962 273.587C-20.7858 281.667 -14.4417 296.387 -3.18635 305.544C-1.05099 307.283 1.94539 307.483 4.29427 306.048L23.6777 295.51C46.1403 283.607 49.7566 294.206 77.5093 280.025C87.7796 274.774 118.908 255.741 118.908 255.741L93.366 165.507Z" fill="url(#paint57_linear_3908_3022)"/>
<path d="M92.3879 200.632C92.3879 200.632 56.6035 220.9 52.4912 233.176C48.3721 245.452 25.2965 269.336 39.4656 272.966C53.6347 276.595 110.166 256.197 112.116 241.388C114.051 226.593 92.3879 200.632 92.3879 200.632Z" fill="url(#paint58_linear_3908_3022)"/>
<path d="M168.537 259.04H90.0045C85.3205 259.04 81.5182 255.238 81.5182 250.538V87.3979C81.5182 82.7054 85.3136 78.8961 90.0045 78.8961H168.537C173.221 78.8961 177.023 82.6985 177.023 87.3979V250.538C177.023 255.231 173.221 259.04 168.537 259.04Z" fill="url(#paint59_linear_3908_3022)"/>
<path d="M173.552 248.634V87.3979C173.552 84.6307 171.299 82.3741 168.537 82.3741H90.0045C87.2423 82.3741 84.9899 84.6307 84.9899 87.3979V248.634H173.552Z" fill="url(#paint60_linear_3908_3022)"/>
<path d="M173.552 92.2008H84.9899V109.239H173.552V92.2008Z" fill="url(#paint61_linear_3908_3022)"/>
<path d="M166.154 179.585V192.365C166.154 193.538 165.203 194.49 164.032 194.49H94.5094C93.3384 194.49 92.3878 193.538 92.3878 192.365V179.585C92.3878 178.412 93.3384 177.459 94.5094 177.459H164.032C165.203 177.459 166.154 178.412 166.154 179.585Z" fill="white"/>
<path d="M166.154 200.632V213.412C166.154 214.585 165.203 215.538 164.032 215.538H94.5094C93.3384 215.538 92.3878 214.585 92.3878 213.412V200.632C92.3878 199.459 93.3384 198.507 94.5094 198.507H164.032C165.203 198.507 166.154 199.459 166.154 200.632Z" fill="url(#paint62_linear_3908_3022)"/>
<path d="M166.154 221.679V234.459C166.154 235.633 165.203 236.585 164.032 236.585H94.5094C93.3384 236.585 92.3878 235.633 92.3878 234.459V221.679C92.3878 220.506 93.3384 219.554 94.5094 219.554H164.032C165.203 219.554 166.154 220.506 166.154 221.679Z" fill="url(#paint63_linear_3908_3022)"/>
<path d="M167.511 146.496C167.497 147.234 167.435 147.904 167.332 148.511C166.65 152.575 164.177 153.679 162.655 153.969C153.659 154.018 115.87 154.162 98.3186 153.955C96.1695 153.935 93.9928 153.679 92.5876 152.72C92.257 152.493 91.9677 152.23 91.7266 151.92C91.5819 151.727 91.4579 151.52 91.3477 151.292C91.1342 150.816 91.0102 150.264 91.0102 149.615C91.0102 145.833 94.2477 143.715 103.306 140.885C108.1 139.388 110.552 136.98 113.817 135.068C116.311 133.612 118.97 132.529 121.697 131.728C122.731 131.425 123.764 131.155 124.804 130.928C128.923 130.01 132.994 129.665 137.134 129.541C151.647 129.43 159.045 136.938 159.493 137.401C159.507 137.414 159.514 137.421 159.514 137.421H159.507C159.734 137.621 160.499 138.16 161.38 138.76C162.675 139.643 164.211 140.665 164.577 140.906C166.96 142.48 167.408 144.895 167.49 145.958C167.525 146.296 167.511 146.496 167.511 146.496Z" fill="url(#paint64_linear_3908_3022)"/>
<path d="M121.711 131.721C117.916 133.785 113.721 136.448 110.463 139.561C108.858 141.092 103.34 143.735 99.1796 144.122C91.6784 144.826 91.5957 150.961 91.3546 151.292C91.1411 150.816 91.0171 150.264 91.0171 149.615C91.0171 145.833 94.2546 143.715 103.313 140.885C108.107 139.388 110.559 136.98 113.824 135.068C116.324 133.612 118.99 132.529 121.711 131.721Z" fill="url(#paint65_linear_3908_3022)"/>
<path d="M160.016 139.457C159.727 139.209 154.527 134.254 149.684 132.598C145.103 131.031 140.509 130.672 136.19 130.638C126.65 130.555 119.369 132.611 111.723 139.119L110.483 140.175L139.083 139.754L160.016 139.457Z" fill="url(#paint66_linear_3908_3022)"/>
<path d="M159.3 152.285C156.731 152.32 147.99 152.334 137.878 152.334C139.744 143.729 139.875 139.733 139.875 139.733L139.083 139.747C139.083 139.747 138.959 143.729 137.092 152.334C119.465 152.327 98.1326 152.285 98.1326 152.285C98.1326 152.285 92.5945 152.472 91.0171 149.615C91.0171 153.238 94.6954 153.921 98.3186 153.962C115.863 154.169 153.659 154.024 162.655 153.976C164.177 153.686 166.643 152.582 167.332 148.518C166.808 149.573 164.942 152.196 159.3 152.285Z" fill="url(#paint67_linear_3908_3022)"/>
<path d="M155.098 158.027C158.267 158.027 160.836 155.453 160.836 152.279C160.836 149.104 158.267 146.53 155.098 146.53C151.929 146.53 149.36 149.104 149.36 152.279C149.36 155.453 151.929 158.027 155.098 158.027Z" fill="url(#paint68_linear_3908_3022)"/>
<path d="M155.098 148.069C152.777 148.069 150.896 149.953 150.896 152.279C150.896 154.604 152.777 156.488 155.098 156.488C157.42 156.488 159.3 154.604 159.3 152.279C159.3 149.953 157.42 148.069 155.098 148.069Z" fill="#1AAFC6"/>
<path d="M155.098 148.801C153.183 148.801 151.627 150.36 151.627 152.279C151.627 154.197 153.183 155.757 155.098 155.757C157.013 155.757 158.57 154.197 158.57 152.279C158.57 150.36 157.013 148.801 155.098 148.801Z" fill="url(#paint69_radial_3908_3022)"/>
<path d="M155.098 148.801C153.183 148.801 151.627 150.36 151.627 152.279C151.627 154.197 153.183 155.757 155.098 155.757C157.013 155.757 158.57 154.197 158.57 152.279C158.57 150.36 157.013 148.801 155.098 148.801Z" fill="url(#paint70_linear_3908_3022)"/>
<path d="M155.098 153.763C155.916 153.763 156.579 153.099 156.579 152.279C156.579 151.459 155.916 150.795 155.098 150.795C154.28 150.795 153.617 151.459 153.617 152.279C153.617 153.099 154.28 153.763 155.098 153.763Z" fill="#1AAFC6"/>
<path d="M112.109 158.027C115.278 158.027 117.847 155.453 117.847 152.279C117.847 149.104 115.278 146.53 112.109 146.53C108.94 146.53 106.371 149.104 106.371 152.279C106.371 155.453 108.94 158.027 112.109 158.027Z" fill="url(#paint71_linear_3908_3022)"/>
<path d="M112.109 148.069C109.788 148.069 107.907 149.953 107.907 152.279C107.907 154.604 109.788 156.488 112.109 156.488C114.43 156.488 116.311 154.604 116.311 152.279C116.311 149.953 114.43 148.069 112.109 148.069Z" fill="#1AAFC6"/>
<path d="M112.109 148.801C110.194 148.801 108.637 150.36 108.637 152.279C108.637 154.197 110.194 155.757 112.109 155.757C114.024 155.757 115.581 154.197 115.581 152.279C115.581 150.36 114.024 148.801 112.109 148.801Z" fill="url(#paint72_radial_3908_3022)"/>
<path d="M112.109 148.801C110.194 148.801 108.637 150.36 108.637 152.279C108.637 154.197 110.194 155.757 112.109 155.757C114.024 155.757 115.581 154.197 115.581 152.279C115.581 150.36 114.024 148.801 112.109 148.801Z" fill="url(#paint73_linear_3908_3022)"/>
<path d="M112.109 153.763C112.927 153.763 113.59 153.099 113.59 152.279C113.59 151.459 112.927 150.795 112.109 150.795C111.291 150.795 110.628 151.459 110.628 152.279C110.628 153.099 111.291 153.763 112.109 153.763Z" fill="#1AAFC6"/>
<path d="M158.625 138.891C158.591 138.863 152.66 133.916 146.088 132.328C144.146 131.859 141.914 131.597 139.627 131.48C140.116 134.302 140.309 135.627 139.992 139.146L158.625 138.891Z" fill="url(#paint74_linear_3908_3022)"/>
<path d="M138.567 139.167L112.102 139.561C115.422 136.738 119.348 133.633 127.842 131.942C127.848 131.942 127.855 131.942 127.862 131.942C130.618 131.583 134.379 131.328 138.126 131.425C138.739 134.281 139.021 135.558 138.567 139.167Z" fill="url(#paint75_linear_3908_3022)"/>
<path d="M120.058 243.031C120.058 243.935 119.328 244.667 118.425 244.667C117.523 244.667 116.793 243.935 116.793 243.031C116.793 242.126 117.523 241.395 118.425 241.395C119.328 241.395 120.058 242.133 120.058 243.031Z" fill="#2DC6D6"/>
<path d="M130.9 243.031C130.9 243.935 130.17 244.667 129.267 244.667C128.365 244.667 127.635 243.935 127.635 243.031C127.635 242.126 128.365 241.395 129.267 241.395C130.17 241.402 130.9 242.133 130.9 243.031Z" fill="#1AAFC6"/>
<path d="M141.742 243.031C141.742 243.935 141.012 244.667 140.11 244.667C139.207 244.667 138.477 243.935 138.477 243.031C138.477 242.126 139.207 241.395 140.11 241.395C141.012 241.402 141.742 242.133 141.742 243.031Z" fill="#2DC6D6"/>
<path d="M114.823 187.72C114.575 192.82 111.489 199.928 98.5253 205.421C86.2711 210.61 75.8768 217.545 68.8921 222.838C63.2093 227.144 59.2004 233.293 57.5265 240.228C54.6679 252.049 47.7452 270.019 35.4635 275.222C-9.38574 294.226 -17.6447 277.713 -3.64785 257.721L5.48594 250.303L38.2877 212.335C41.8145 208.837 46.0438 206.132 50.6934 204.413L108.437 183.042C108.871 182.883 109.312 182.786 109.739 182.759C112.488 182.559 114.967 184.788 114.823 187.72Z" fill="url(#paint76_linear_3908_3022)"/>
<path d="M103.712 190.488C99.9718 191.737 97.6436 189.239 96.5277 187.486L108.575 183.028C109.009 182.87 109.45 182.773 109.877 182.745C110.759 186.41 108.196 188.99 103.712 190.488Z" fill="url(#paint77_linear_3908_3022)"/>
<path d="M275.847 195.532C274.641 194.691 273.16 194.152 271.548 193.807V193.793C271.411 193.766 271.259 193.738 271.107 193.717C270.474 193.6 269.819 193.51 269.151 193.435C263.916 192.82 253.611 192.117 248.852 192.117C243.238 192.117 239.174 201.688 239.174 201.688L280.117 204.214L280.124 204.248C280.317 204.241 280.462 204.241 280.551 204.241C282.191 204.241 283.747 203.199 283.747 203.199L283.823 203.247C283.238 202.274 281.144 199.252 275.847 195.532Z" fill="url(#paint78_linear_3908_3022)"/>
<path d="M275.847 195.532C274.641 194.691 273.16 194.152 271.548 193.807V193.793C271.411 193.766 271.259 193.738 271.107 193.717C270.474 193.6 269.819 193.51 269.151 193.435C263.916 192.82 253.611 192.117 248.852 192.117C243.238 192.117 239.174 201.688 239.174 201.688H240.524C240.524 201.688 243.892 193.987 248.418 193.379C251.889 192.917 261.698 193.455 267.45 194.159C269.193 194.373 270.708 194.552 271.762 194.766C273.491 195.118 274.827 195.926 276.177 196.871C277.169 197.568 278.051 198.279 278.829 198.976L280.131 204.255C280.324 204.248 280.469 204.248 280.558 204.248C282.198 204.248 283.754 203.206 283.754 203.206L283.982 203.551C283.389 202.564 281.144 199.252 275.847 195.532Z" fill="url(#paint79_linear_3908_3022)"/>
<path d="M282.308 204.075L241.757 201.674L209.899 202.336C209.899 202.336 205.8 212.474 213.97 214.109C222.139 215.745 280.255 216.994 282.308 211.894C284.36 206.801 282.308 204.075 282.308 204.075Z" fill="url(#paint80_linear_3908_3022)"/>
<path d="M251.848 199.48C251.827 199.431 251.814 199.397 251.793 199.355C251.731 199.21 251.717 199.19 251.669 199.107C251.311 198.451 250.808 197.955 249.83 197.561C249.733 197.541 249.416 197.354 248.328 197.299C248.032 197.292 247.763 197.306 247.474 197.34C243.637 197.754 240.71 201.391 241.199 203.958V203.965C241.619 206.277 244.402 207.823 248.232 205.918C249.354 205.359 250.408 204.469 251.125 203.413C251.572 202.757 251.91 201.998 252.027 201.212L252.02 201.232C252.185 200.128 251.779 199.273 251.848 199.48ZM243.754 200.025C244.037 199.783 244.037 199.783 244.064 199.756C245.366 198.7 246.744 198.355 246.758 198.348C250.36 197.368 251.703 199.411 251.049 201.626L243.01 200.832C243.196 200.598 243.396 200.37 243.617 200.149C243.665 200.108 243.713 200.066 243.754 200.025ZM243.155 205.504C243.162 205.504 243.162 205.511 243.155 205.504V205.504ZM244.305 205.87C244.312 205.87 244.319 205.87 244.326 205.87H244.305ZM245.965 205.801C245.297 205.925 244.602 205.966 243.947 205.808L244.016 205.828C243.982 205.821 243.913 205.801 243.947 205.808C243.665 205.732 243.61 205.704 243.541 205.67C242.156 205.021 241.77 203.931 242.032 202.771L249.754 203.793C248.879 204.703 247.605 205.463 245.965 205.801Z" fill="url(#paint81_linear_3908_3022)"/>
<path d="M252.633 229.691L262.745 228.497C262.745 228.497 268.779 213.309 262.304 210.969C255.829 208.63 250.732 218.022 252.633 229.691Z" fill="url(#paint82_linear_3908_3022)"/>
<path d="M286.992 221.596L291.703 220.755C291.703 220.755 294.121 208.285 291.503 207.236C287.853 205.773 285.903 214.93 286.992 221.596Z" fill="url(#paint83_linear_3908_3022)"/>
<path d="M258.654 235.074C254.114 233.645 254.837 213.875 259.714 213.109C260.004 213.06 261.237 213.15 254.927 212.867C252.606 212.764 251.276 217.842 250.891 220.147C249.747 226.986 251.194 234.791 253.942 234.915C260.348 235.198 259.005 235.184 258.654 235.074Z" fill="url(#paint84_linear_3908_3022)"/>
<path d="M259.473 213.171C261.65 212.453 263.434 216.773 263.462 222.818C263.482 228.863 261.733 234.349 259.556 235.06C257.379 235.778 255.595 231.458 255.568 225.413C255.54 219.368 257.29 213.888 259.473 213.171Z" fill="url(#paint85_linear_3908_3022)"/>
<path d="M218.86 220.292C218.86 212.17 214.094 210.052 211.738 210.459C211.338 210.438 210.091 210.39 206.826 210.245C203.865 210.114 199.725 213.95 199.732 221.493C199.738 227.11 202.322 232.52 205.841 232.293C211.393 232.541 212.392 232.562 212.33 232.493C217.407 232.431 218.86 226.02 218.86 220.292Z" fill="url(#paint86_linear_3908_3022)"/>
<path d="M290.539 209.499C285.821 209.389 285.724 209.168 285.035 209.983C282.37 213.136 282.204 225.461 284.829 228.007C285.345 228.511 285.201 228.373 290.057 228.497C286.344 228.401 286.654 209.403 290.539 209.499Z" fill="url(#paint87_linear_3908_3022)"/>
<path d="M290.202 209.554C291.813 208.995 293.157 212.77 293.205 217.987C293.26 223.204 291.993 227.883 290.388 228.442C288.776 229.001 287.433 225.226 287.384 220.009C287.329 214.799 288.597 210.113 290.202 209.554Z" fill="url(#paint88_linear_3908_3022)"/>
<path d="M292.957 214.482C292.13 211.563 292.096 207.326 289.155 209.341C288.039 210.107 287.453 212.336 287.185 215.407C287.026 217.221 286.978 219.326 286.992 221.596L262.745 228.497C262.745 228.497 263.468 226.627 263.627 222.763C263.709 220.796 263.641 218.574 263.262 216.359C263 214.82 262.394 212.156 260.079 211.825C255.774 212.087 253.942 217.849 253.164 223.135C252.799 225.64 252.668 228.042 252.626 229.691L241.474 230.843C232.919 230.692 209.582 227.876 204.133 226.786C198.685 225.696 197.52 221.61 197.52 221.61C196.356 217.394 198.485 211.452 200.372 207.484C201.667 204.759 209.885 202.343 209.885 202.343C216.07 205.187 237.948 205.49 240.765 205.331L240.772 205.276C240.785 205.276 247.371 205.262 247.371 205.276C255.347 205.214 257.724 205.193 257.724 205.193C258.144 205.173 278.981 204.241 280.537 204.241C282.177 204.241 283.734 203.199 283.734 203.199L285.807 204.586C290.126 204.8 291.813 206.146 291.813 206.146C294.211 208.568 292.957 214.482 292.957 214.482Z" fill="url(#paint89_linear_3908_3022)"/>
<path d="M253.171 223.135C252.805 225.64 252.675 228.042 252.633 229.691L241.481 230.843C232.926 230.692 209.589 227.876 204.14 226.786C198.691 225.696 197.527 221.61 197.527 221.61C196.969 219.581 197.183 217.194 197.7 214.91C200.042 215.531 204.781 216.573 212.888 217.47C225.418 218.857 244.67 217.732 244.67 217.732L244.788 219.464C244.181 223.184 246.083 222.238 248.245 222.666C249.485 222.908 251.593 223.053 253.171 223.135Z" fill="url(#paint90_linear_3908_3022)"/>
<path d="M264.44 204.89C264.267 204.917 250.539 207.105 247.315 209.382C244.071 211.673 244.67 217.718 244.67 217.718C244.67 217.718 225.425 218.843 212.888 217.456C204.788 216.559 200.042 215.524 197.7 214.896C197.996 213.599 198.395 212.329 198.815 211.19C199.125 210.341 199.442 209.555 199.738 208.878C199.973 208.34 200.186 207.871 200.372 207.478C201.667 204.752 209.885 202.337 209.885 202.337C209.885 202.337 202.508 205.456 202.06 209.375C201.612 213.295 203.961 214.137 203.961 214.137C203.961 214.137 217.097 215.524 223.324 215.8C229.544 216.076 231.101 210.065 233.181 209.368C235.254 208.671 247.405 205.262 247.405 205.262C247.625 205.262 257.724 205.18 257.724 205.18C257.806 205.187 260.72 205.055 264.44 204.89Z" fill="url(#paint91_linear_3908_3022)"/>
<path d="M286.992 221.596L262.745 228.497C262.745 228.497 263.468 226.627 263.627 222.763L287.019 217.221C286.861 219.036 286.971 219.326 286.992 221.596Z" fill="url(#paint92_linear_3908_3022)"/>
<path d="M280.668 204.111C280.668 204.111 283.802 204.263 284.257 203.421C284.712 202.579 284.905 200.791 283.155 200.598C281.405 200.404 280.042 201.184 280.042 201.184L280.668 204.111Z" fill="url(#paint93_linear_3908_3022)"/>
<path d="M280.964 203.786C280.964 203.786 283.527 203.911 283.899 203.22C284.271 202.53 284.429 201.067 282.997 200.908C281.564 200.749 280.448 201.384 280.448 201.384L280.964 203.786Z" fill="url(#paint94_linear_3908_3022)"/>
<path d="M232.699 212.867C232.699 212.867 242.576 212.936 243.72 212.867C244.863 212.798 242.239 215.359 242.239 215.359L231.073 214.903L232.699 212.867Z" fill="url(#paint95_linear_3908_3022)"/>
<path d="M201.915 211.895L198.822 211.191C199.132 210.342 199.449 209.555 199.745 208.878C200.896 209.134 201.674 209.306 201.674 209.306L201.915 211.895Z" fill="url(#paint96_linear_3908_3022)"/>
<path d="M259.494 219.347C260.403 219.05 261.147 220.851 261.154 223.37C261.161 225.889 260.438 228.173 259.528 228.47C258.619 228.766 257.875 226.965 257.868 224.446C257.854 221.928 258.585 219.644 259.494 219.347Z" fill="url(#paint97_linear_3908_3022)"/>
<path d="M290.257 214.716C290.952 214.475 291.531 216.103 291.552 218.353C291.572 220.603 291.028 222.625 290.339 222.866C289.644 223.108 289.065 221.479 289.044 219.23C289.017 216.98 289.561 214.958 290.257 214.716Z" fill="url(#paint98_linear_3908_3022)"/>
<path d="M426.216 253.443C420.609 264.995 412.674 271.544 400.55 276.333C396.962 277.755 392.856 276.623 390.487 273.566C390.025 272.972 389.557 272.365 389.095 271.758C389.095 271.758 389.095 271.751 389.088 271.744C382.028 262.518 374.665 252.077 366.571 248.04C362.472 245.997 356.796 243.306 350.749 240.014C340.037 234.176 328.169 226.455 321.949 217.132C315.329 207.222 309.461 199.183 308.675 192.11C308.303 188.783 309.061 185.664 311.396 182.669L315.453 177.107C315.453 177.107 272.45 117.216 274.957 101.544C275.095 100.675 275.378 99.9434 275.812 99.3637C277.726 96.8104 280.571 95.9064 282.617 95.5269C285.572 94.9748 287.873 95.5062 291.489 99.343C300.416 108.838 310.852 128.982 321.171 143.853C325.035 149.429 331.806 155.239 338.57 155.625H376.635C388.234 156.281 397.85 164.714 399.834 176.183C402.1 189.28 402.961 208.651 411.138 222.604C414.403 228.18 420.506 238.821 423.84 242.706C426.498 245.825 428.007 249.751 426.216 253.443Z" fill="url(#paint99_linear_3908_3022)"/>
<path d="M277.899 100.627C277.361 101.179 277.258 102.021 277.609 102.711C278.925 105.257 282.672 110.985 288.947 108.838C293.969 107.12 290.249 100.302 288.396 97.673C288.052 97.19 287.494 96.914 286.908 96.914C285.104 96.9278 281.074 97.3556 277.899 100.627Z" fill="url(#paint100_linear_3908_3022)"/>
<path d="M328.658 190.481C328.658 190.481 312.829 182.621 308.675 192.11C308.303 188.784 309.061 185.664 311.396 182.669L315.453 177.107L328.658 190.481Z" fill="url(#paint101_linear_3908_3022)"/>
<path d="M389.088 271.751C382.028 262.525 374.664 252.084 366.571 248.047C362.472 246.004 356.796 243.313 350.748 240.021C350.748 240.021 364.924 241.574 371.282 244.693C377.192 247.592 388.73 271.02 389.088 271.751Z" fill="url(#paint102_linear_3908_3022)"/>
</g>
<defs>
<linearGradient id="paint0_linear_3908_3022" x1="284.737" y1="304.489" x2="150.141" y2="1.26281" gradientUnits="userSpaceOnUse">
<stop stop-color="#85DDEB"/>
<stop offset="1" stop-color="#DCF6F9"/>
</linearGradient>
<linearGradient id="paint1_linear_3908_3022" x1="261.845" y1="608.667" x2="184.748" y2="65.9139" gradientUnits="userSpaceOnUse">
<stop stop-color="#A2E5F0"/>
<stop offset="1" stop-color="#E4F8FA"/>
</linearGradient>
<linearGradient id="paint2_linear_3908_3022" x1="214.023" y1="64.2428" x2="298.874" y2="64.2428" gradientUnits="userSpaceOnUse">
<stop stop-color="#1EBAD0"/>
<stop offset="1" stop-color="#006482"/>
</linearGradient>
<linearGradient id="paint3_linear_3908_3022" x1="179.28" y1="174.633" x2="300.129" y2="174.633" gradientUnits="userSpaceOnUse">
<stop stop-color="#1EBAD0"/>
<stop offset="1" stop-color="#006482"/>
</linearGradient>
<linearGradient id="paint4_linear_3908_3022" x1="200.538" y1="205.702" x2="213.963" y2="-26.5664" gradientUnits="userSpaceOnUse">
<stop stop-color="#29D6EF"/>
<stop offset="0.9946" stop-color="white"/>
</linearGradient>
<linearGradient id="paint5_linear_3908_3022" x1="202.292" y1="175.244" x2="213.668" y2="-21.5693" gradientUnits="userSpaceOnUse">
<stop stop-color="#29D6EF"/>
<stop offset="0.9946" stop-color="white"/>
</linearGradient>
<linearGradient id="paint6_linear_3908_3022" x1="284.478" y1="72.1177" x2="299.35" y2="136.982" gradientUnits="userSpaceOnUse">
<stop stop-color="#2781B3"/>
<stop offset="1" stop-color="#104274"/>
</linearGradient>
<linearGradient id="paint7_linear_3908_3022" x1="257.256" y1="188.799" x2="234.7" y2="251.398" gradientUnits="userSpaceOnUse">
<stop stop-color="#2781B3"/>
<stop offset="1" stop-color="#104274"/>
</linearGradient>
<linearGradient id="paint8_linear_3908_3022" x1="175.994" y1="2.17925" x2="190.035" y2="63.4242" gradientUnits="userSpaceOnUse">
<stop stop-color="#2781B3"/>
<stop offset="1" stop-color="#104274"/>
</linearGradient>
<linearGradient id="paint9_linear_3908_3022" x1="341.159" y1="113.508" x2="300.117" y2="81.1008" gradientUnits="userSpaceOnUse">
<stop stop-color="#85DDEB"/>
<stop offset="1" stop-color="#DCF6F9"/>
</linearGradient>
<linearGradient id="paint10_linear_3908_3022" x1="305.866" y1="113.652" x2="270.752" y2="85.926" gradientUnits="userSpaceOnUse">
<stop stop-color="#85DDEB"/>
<stop offset="1" stop-color="#DCF6F9"/>
</linearGradient>
<linearGradient id="paint11_linear_3908_3022" x1="285.82" y1="123.194" x2="282.976" y2="112.786" gradientUnits="userSpaceOnUse">
<stop stop-color="#1C6E9C"/>
<stop offset="1" stop-color="#0B3965"/>
</linearGradient>
<linearGradient id="paint12_linear_3908_3022" x1="253.496" y1="113.06" x2="251.42" y2="105.462" gradientUnits="userSpaceOnUse">
<stop stop-color="#1C6E9C"/>
<stop offset="1" stop-color="#0B3965"/>
</linearGradient>
<linearGradient id="paint13_linear_3908_3022" x1="289.034" y1="127.766" x2="285.907" y2="116.321" gradientUnits="userSpaceOnUse">
<stop stop-color="#1C6E9C"/>
<stop offset="1" stop-color="#0B3965"/>
</linearGradient>
<linearGradient id="paint14_linear_3908_3022" x1="280.993" y1="114.313" x2="280.827" y2="94.3437" gradientUnits="userSpaceOnUse">
<stop stop-color="#0082A6"/>
<stop offset="1" stop-color="#22C1D9"/>
</linearGradient>
<linearGradient id="paint15_linear_3908_3022" x1="335.767" y1="125.791" x2="332.576" y2="114.113" gradientUnits="userSpaceOnUse">
<stop stop-color="#1C6E9C"/>
<stop offset="1" stop-color="#0B3965"/>
</linearGradient>
<linearGradient id="paint16_linear_3908_3022" x1="256.959" y1="120.495" x2="254.266" y2="110.637" gradientUnits="userSpaceOnUse">
<stop stop-color="#1C6E9C"/>
<stop offset="1" stop-color="#0B3965"/>
</linearGradient>
<linearGradient id="paint17_linear_3908_3022" x1="250.204" y1="108.814" x2="250.061" y2="91.6099" gradientUnits="userSpaceOnUse">
<stop stop-color="#0082A6"/>
<stop offset="1" stop-color="#22C1D9"/>
</linearGradient>
<linearGradient id="paint18_linear_3908_3022" x1="316.4" y1="78.0894" x2="180.281" y2="233.429" gradientUnits="userSpaceOnUse">
<stop stop-color="#FF826E"/>
<stop offset="1" stop-color="#FB5353"/>
</linearGradient>
<linearGradient id="paint19_linear_3908_3022" x1="320.286" y1="63.363" x2="291.779" y2="94.0168" gradientUnits="userSpaceOnUse">
<stop stop-color="#FA7964"/>
<stop offset="1" stop-color="#F64B4B"/>
</linearGradient>
<linearGradient id="paint20_linear_3908_3022" x1="295.052" y1="73.2809" x2="271.979" y2="98.0919" gradientUnits="userSpaceOnUse">
<stop stop-color="#FA7964"/>
<stop offset="1" stop-color="#F64B4B"/>
</linearGradient>
<linearGradient id="paint21_linear_3908_3022" x1="316.699" y1="101.216" x2="311.477" y2="130.084" gradientUnits="userSpaceOnUse">
<stop stop-color="#FCBDB3"/>
<stop offset="0.768" stop-color="#EE5F5D"/>
<stop offset="1" stop-color="#EA4242"/>
</linearGradient>
<linearGradient id="paint22_linear_3908_3022" x1="310.848" y1="89.3593" x2="306.271" y2="114.661" gradientUnits="userSpaceOnUse">
<stop stop-color="#FCBDB3"/>
<stop offset="0.768" stop-color="#EE5F5D"/>
<stop offset="1" stop-color="#EA4242"/>
</linearGradient>
<linearGradient id="paint23_linear_3908_3022" x1="266.023" y1="107.941" x2="264.569" y2="115.978" gradientUnits="userSpaceOnUse">
<stop stop-color="#FCBDB3"/>
<stop offset="0.768" stop-color="#EE5F5D"/>
<stop offset="1" stop-color="#EA4242"/>
</linearGradient>
<linearGradient id="paint24_linear_3908_3022" x1="260.921" y1="86.9334" x2="257.298" y2="90.8287" gradientUnits="userSpaceOnUse">
<stop stop-color="#FA7964"/>
<stop offset="1" stop-color="#F64B4B"/>
</linearGradient>
<linearGradient id="paint25_linear_3908_3022" x1="261.596" y1="92.3885" x2="257.433" y2="89.1023" gradientUnits="userSpaceOnUse">
<stop stop-color="#85DDEB"/>
<stop offset="1" stop-color="#DCF6F9"/>
</linearGradient>
<linearGradient id="paint26_linear_3908_3022" x1="302.544" y1="107.691" x2="303.389" y2="94.392" gradientUnits="userSpaceOnUse">
<stop stop-color="#0082A6"/>
<stop offset="1" stop-color="#22C1D9"/>
</linearGradient>
<linearGradient id="paint27_linear_3908_3022" x1="339.788" y1="104.122" x2="340.65" y2="90.568" gradientUnits="userSpaceOnUse">
<stop stop-color="#0082A6"/>
<stop offset="1" stop-color="#22C1D9"/>
</linearGradient>
<linearGradient id="paint28_linear_3908_3022" x1="275.134" y1="119.474" x2="288.164" y2="101.414" gradientUnits="userSpaceOnUse">
<stop stop-color="#1C6E9C"/>
<stop offset="1" stop-color="#0B3965"/>
</linearGradient>
<linearGradient id="paint29_linear_3908_3022" x1="244.969" y1="113.493" x2="256.613" y2="97.3537" gradientUnits="userSpaceOnUse">
<stop stop-color="#1C6E9C"/>
<stop offset="1" stop-color="#0B3965"/>
</linearGradient>
<linearGradient id="paint30_linear_3908_3022" x1="133.883" y1="32.8054" x2="132.087" y2="26.2345" gradientUnits="userSpaceOnUse">
<stop stop-color="#1C6E9C"/>
<stop offset="1" stop-color="#0B3965"/>
</linearGradient>
<linearGradient id="paint31_linear_3908_3022" x1="191.767" y1="38.5833" x2="189.966" y2="31.9889" gradientUnits="userSpaceOnUse">
<stop stop-color="#1C6E9C"/>
<stop offset="1" stop-color="#0B3965"/>
</linearGradient>
<linearGradient id="paint32_linear_3908_3022" x1="225.76" y1="36.8142" x2="224.476" y2="32.116" gradientUnits="userSpaceOnUse">
<stop stop-color="#1C6E9C"/>
<stop offset="1" stop-color="#0B3965"/>
</linearGradient>
<linearGradient id="paint33_linear_3908_3022" x1="198.436" y1="42.6089" x2="196.2" y2="34.4262" gradientUnits="userSpaceOnUse">
<stop stop-color="#1C6E9C"/>
<stop offset="1" stop-color="#0B3965"/>
</linearGradient>
<linearGradient id="paint34_linear_3908_3022" x1="190.688" y1="18.4124" x2="191.745" y2="47.7013" gradientUnits="userSpaceOnUse">
<stop stop-color="#2781B3"/>
<stop offset="1" stop-color="#104274"/>
</linearGradient>
<linearGradient id="paint35_linear_3908_3022" x1="193.338" y1="39.7144" x2="191.833" y2="34.208" gradientUnits="userSpaceOnUse">
<stop stop-color="#1C6E9C"/>
<stop offset="1" stop-color="#0B3965"/>
</linearGradient>
<linearGradient id="paint36_linear_3908_3022" x1="137.627" y1="36.1534" x2="135.799" y2="29.4613" gradientUnits="userSpaceOnUse">
<stop stop-color="#1C6E9C"/>
<stop offset="1" stop-color="#0B3965"/>
</linearGradient>
<linearGradient id="paint37_linear_3908_3022" x1="131.773" y1="14.8407" x2="131.508" y2="41.931" gradientUnits="userSpaceOnUse">
<stop stop-color="#2781B3"/>
<stop offset="1" stop-color="#104274"/>
</linearGradient>
<linearGradient id="paint38_linear_3908_3022" x1="133.372" y1="33.5877" x2="132.18" y2="29.2245" gradientUnits="userSpaceOnUse">
<stop stop-color="#1C6E9C"/>
<stop offset="1" stop-color="#0B3965"/>
</linearGradient>
<linearGradient id="paint39_linear_3908_3022" x1="190.934" y1="6.47154" x2="189.794" y2="11.3086" gradientUnits="userSpaceOnUse">
<stop stop-color="#3AA0CA"/>
<stop offset="1" stop-color="#25699E"/>
</linearGradient>
<linearGradient id="paint40_linear_3908_3022" x1="163.733" y1="24.0204" x2="187.523" y2="5.23524" gradientUnits="userSpaceOnUse">
<stop stop-color="#85DDEB"/>
<stop offset="1" stop-color="#DCF6F9"/>
</linearGradient>
<linearGradient id="paint41_linear_3908_3022" x1="168.754" y1="46.3908" x2="183.335" y2="16.5717" gradientUnits="userSpaceOnUse">
<stop stop-color="#29D6EF"/>
<stop offset="1" stop-color="#18A5BD"/>
</linearGradient>
<linearGradient id="paint42_linear_3908_3022" x1="208.862" y1="30.156" x2="207.54" y2="25.3164" gradientUnits="userSpaceOnUse">
<stop stop-color="#1C6E9C"/>
<stop offset="1" stop-color="#0B3965"/>
</linearGradient>
<linearGradient id="paint43_linear_3908_3022" x1="202.741" y1="24.3994" x2="209.871" y2="21.918" gradientUnits="userSpaceOnUse">
<stop stop-color="#85DDEB"/>
<stop offset="1" stop-color="#DCF6F9"/>
</linearGradient>
<linearGradient id="paint44_linear_3908_3022" x1="209.633" y1="14.2359" x2="189.547" y2="46.1738" gradientUnits="userSpaceOnUse">
<stop stop-color="#29D6EF"/>
<stop offset="1" stop-color="#18A5BD"/>
</linearGradient>
<linearGradient id="paint45_linear_3908_3022" x1="154.577" y1="6.0815" x2="157.815" y2="19.8166" gradientUnits="userSpaceOnUse">
<stop stop-color="#3AA0CA"/>
<stop offset="1" stop-color="#25699E"/>
</linearGradient>
<linearGradient id="paint46_linear_3908_3022" x1="161.444" y1="30.6166" x2="151.838" y2="-0.278933" gradientUnits="userSpaceOnUse">
<stop stop-color="#85DDEB"/>
<stop offset="1" stop-color="#B8EBF3"/>
</linearGradient>
<linearGradient id="paint47_linear_3908_3022" x1="171.591" y1="7.99955" x2="170.345" y2="19.7273" gradientUnits="userSpaceOnUse">
<stop stop-color="#1C6E9C"/>
<stop offset="1" stop-color="#0B3965"/>
</linearGradient>
<linearGradient id="paint48_linear_3908_3022" x1="167.807" y1="1.23592" x2="166.558" y2="6.53392" gradientUnits="userSpaceOnUse">
<stop stop-color="#3AA0CA"/>
<stop offset="1" stop-color="#25699E"/>
</linearGradient>
<linearGradient id="paint49_linear_3908_3022" x1="217.824" y1="28.347" x2="214.952" y2="40.531" gradientUnits="userSpaceOnUse">
<stop stop-color="#3AA0CA"/>
<stop offset="1" stop-color="#25699E"/>
</linearGradient>
<linearGradient id="paint50_linear_3908_3022" x1="151.574" y1="18.237" x2="153.512" y2="18.4001" gradientUnits="userSpaceOnUse">
<stop stop-color="#29D6EF"/>
<stop offset="1" stop-color="#18A5BD"/>
</linearGradient>
<linearGradient id="paint51_linear_3908_3022" x1="162.221" y1="26.2674" x2="159.765" y2="36.6883" gradientUnits="userSpaceOnUse">
<stop stop-color="#3AA0CA"/>
<stop offset="1" stop-color="#25699E"/>
</linearGradient>
<linearGradient id="paint52_linear_3908_3022" x1="124.105" y1="21.5032" x2="125.035" y2="32.7138" gradientUnits="userSpaceOnUse">
<stop offset="0.00537634" stop-color="#F4B2BE"/>
<stop offset="1" stop-color="white"/>
</linearGradient>
<linearGradient id="paint53_linear_3908_3022" x1="207.578" y1="14.7155" x2="209.103" y2="33.1043" gradientUnits="userSpaceOnUse">
<stop offset="0.00537634" stop-color="#F4B2BE"/>
<stop offset="1" stop-color="white"/>
</linearGradient>
<linearGradient id="paint54_linear_3908_3022" x1="154.788" y1="253.128" x2="156.853" y2="221.196" gradientUnits="userSpaceOnUse">
<stop stop-color="#D48292"/>
<stop offset="0.9946" stop-color="#F4B2BE"/>
</linearGradient>
<linearGradient id="paint55_linear_3908_3022" x1="163.384" y1="219.553" x2="165.449" y2="187.621" gradientUnits="userSpaceOnUse">
<stop stop-color="#D48292"/>
<stop offset="0.9946" stop-color="#F4B2BE"/>
</linearGradient>
<linearGradient id="paint56_linear_3908_3022" x1="153.31" y1="202.517" x2="155.375" y2="170.585" gradientUnits="userSpaceOnUse">
<stop stop-color="#D48292"/>
<stop offset="0.9946" stop-color="#F4B2BE"/>
</linearGradient>
<linearGradient id="paint57_linear_3908_3022" x1="48.6649" y1="285.685" x2="42.6156" y2="176.131" gradientUnits="userSpaceOnUse">
<stop stop-color="#D48292"/>
<stop offset="0.9946" stop-color="#F4B2BE"/>
</linearGradient>
<linearGradient id="paint58_linear_3908_3022" x1="64.6923" y1="186.846" x2="74.1299" y2="257.072" gradientUnits="userSpaceOnUse">
<stop stop-color="#D48292"/>
<stop offset="1" stop-color="white"/>
</linearGradient>
<linearGradient id="paint59_linear_3908_3022" x1="107.113" y1="74.6331" x2="151.579" y2="263.271" gradientUnits="userSpaceOnUse">
<stop stop-color="#2781B3"/>
<stop offset="1" stop-color="#104274"/>
</linearGradient>
<linearGradient id="paint60_linear_3908_3022" x1="177.35" y1="287.952" x2="87.0473" y2="62.6048" gradientUnits="userSpaceOnUse">
<stop stop-color="#85DDEB"/>
<stop offset="1" stop-color="#DCF6F9"/>
</linearGradient>
<linearGradient id="paint61_linear_3908_3022" x1="116.246" y1="80.9402" x2="139.979" y2="116.848" gradientUnits="userSpaceOnUse">
<stop stop-color="#55CBE7"/>
<stop offset="1" stop-color="#6FD5ED"/>
</linearGradient>
<linearGradient id="paint62_linear_3908_3022" x1="118.27" y1="190.323" x2="138.315" y2="220.651" gradientUnits="userSpaceOnUse">
<stop stop-color="#55CBE7"/>
<stop offset="1" stop-color="#6FD5ED"/>
</linearGradient>
<linearGradient id="paint63_linear_3908_3022" x1="118.27" y1="211.37" x2="138.315" y2="241.697" gradientUnits="userSpaceOnUse">
<stop stop-color="#55CBE7"/>
<stop offset="1" stop-color="#6FD5ED"/>
</linearGradient>
<linearGradient id="paint64_linear_3908_3022" x1="98.6935" y1="114.483" x2="142.184" y2="161.248" gradientUnits="userSpaceOnUse">
<stop stop-color="#FA7964"/>
<stop offset="1" stop-color="#F64B4B"/>
</linearGradient>
<linearGradient id="paint65_linear_3908_3022" x1="102.903" y1="137.347" x2="120.077" y2="156.946" gradientUnits="userSpaceOnUse">
<stop stop-color="#FF826E"/>
<stop offset="1" stop-color="#FB5353"/>
</linearGradient>
<linearGradient id="paint66_linear_3908_3022" x1="133.881" y1="132.192" x2="136.843" y2="148.566" gradientUnits="userSpaceOnUse">
<stop stop-color="#FCBDB3"/>
<stop offset="0.768" stop-color="#EE5F5D"/>
<stop offset="1" stop-color="#EA4242"/>
</linearGradient>
<linearGradient id="paint67_linear_3908_3022" x1="128.294" y1="144.376" x2="132.2" y2="165.969" gradientUnits="userSpaceOnUse">
<stop stop-color="#FCBDB3"/>
<stop offset="0.768" stop-color="#EE5F5D"/>
<stop offset="1" stop-color="#EA4242"/>
</linearGradient>
<linearGradient id="paint68_linear_3908_3022" x1="154.751" y1="150.285" x2="155.95" y2="157.181" gradientUnits="userSpaceOnUse">
<stop stop-color="#2781B3"/>
<stop offset="1" stop-color="#104274"/>
</linearGradient>
<radialGradient id="paint69_radial_3908_3022" cx="0" cy="0" r="1" gradientUnits="userSpaceOnUse" gradientTransform="translate(152.776 148.238) scale(8.03827 8.05289)">
<stop stop-color="#46DFF5"/>
<stop offset="1" stop-color="#38BFD5"/>
</radialGradient>
<linearGradient id="paint70_linear_3908_3022" x1="151.624" y1="152.282" x2="158.57" y2="152.282" gradientUnits="userSpaceOnUse">
<stop stop-color="#46DFF5"/>
<stop offset="1" stop-color="#38BFD5"/>
</linearGradient>
<linearGradient id="paint71_linear_3908_3022" x1="111.761" y1="150.285" x2="112.96" y2="157.181" gradientUnits="userSpaceOnUse">
<stop stop-color="#2781B3"/>
<stop offset="1" stop-color="#104274"/>
</linearGradient>
<radialGradient id="paint72_radial_3908_3022" cx="0" cy="0" r="1" gradientUnits="userSpaceOnUse" gradientTransform="translate(109.785 148.238) scale(8.03829 8.05289)">
<stop stop-color="#46DFF5"/>
<stop offset="1" stop-color="#38BFD5"/>
</radialGradient>
<linearGradient id="paint73_linear_3908_3022" x1="108.634" y1="152.282" x2="115.58" y2="152.282" gradientUnits="userSpaceOnUse">
<stop stop-color="#46DFF5"/>
<stop offset="1" stop-color="#38BFD5"/>
</linearGradient>
<linearGradient id="paint74_linear_3908_3022" x1="149.581" y1="142.019" x2="148.363" y2="128.643" gradientUnits="userSpaceOnUse">
<stop stop-color="#85DDEB"/>
<stop offset="1" stop-color="#DCF6F9"/>
</linearGradient>
<linearGradient id="paint75_linear_3908_3022" x1="133.911" y1="144.03" x2="124.358" y2="134.786" gradientUnits="userSpaceOnUse">
<stop stop-color="#85DDEB"/>
<stop offset="1" stop-color="#DCF6F9"/>
</linearGradient>
<linearGradient id="paint76_linear_3908_3022" x1="41.4917" y1="301.806" x2="55.0442" y2="213.874" gradientUnits="userSpaceOnUse">
<stop stop-color="#D48292"/>
<stop offset="0.9946" stop-color="#F4B2BE"/>
</linearGradient>
<linearGradient id="paint77_linear_3908_3022" x1="104.685" y1="191.051" x2="102.928" y2="184.033" gradientUnits="userSpaceOnUse">
<stop stop-color="#F9BBC8"/>
<stop offset="0.9946" stop-color="#FED1D9"/>
</linearGradient>
<linearGradient id="paint78_linear_3908_3022" x1="230.802" y1="225.049" x2="268.117" y2="195.585" gradientUnits="userSpaceOnUse">
<stop stop-color="#85DDEB"/>
<stop offset="1" stop-color="#DCF6F9"/>
</linearGradient>
<linearGradient id="paint79_linear_3908_3022" x1="256.084" y1="179.246" x2="262.98" y2="208.499" gradientUnits="userSpaceOnUse">
<stop stop-color="#2781B3"/>
<stop offset="1" stop-color="#104274"/>
</linearGradient>
<linearGradient id="paint80_linear_3908_3022" x1="240.239" y1="228.702" x2="244.059" y2="214.721" gradientUnits="userSpaceOnUse">
<stop stop-color="#1C6E9C"/>
<stop offset="1" stop-color="#0B3965"/>
</linearGradient>
<linearGradient id="paint81_linear_3908_3022" x1="245.599" y1="197.728" x2="247.622" y2="206.31" gradientUnits="userSpaceOnUse">
<stop stop-color="#2781B3"/>
<stop offset="1" stop-color="#104274"/>
</linearGradient>
<linearGradient id="paint82_linear_3908_3022" x1="254.661" y1="235.745" x2="257.505" y2="225.338" gradientUnits="userSpaceOnUse">
<stop stop-color="#1C6E9C"/>
<stop offset="1" stop-color="#0B3965"/>
</linearGradient>
<linearGradient id="paint83_linear_3908_3022" x1="286.985" y1="225.611" x2="289.061" y2="218.014" gradientUnits="userSpaceOnUse">
<stop stop-color="#1C6E9C"/>
<stop offset="1" stop-color="#0B3965"/>
</linearGradient>
<linearGradient id="paint84_linear_3908_3022" x1="251.447" y1="240.318" x2="254.574" y2="228.872" gradientUnits="userSpaceOnUse">
<stop stop-color="#1C6E9C"/>
<stop offset="1" stop-color="#0B3965"/>
</linearGradient>
<linearGradient id="paint85_linear_3908_3022" x1="259.488" y1="226.865" x2="259.654" y2="206.895" gradientUnits="userSpaceOnUse">
<stop stop-color="#0082A6"/>
<stop offset="1" stop-color="#22C1D9"/>
</linearGradient>
<linearGradient id="paint86_linear_3908_3022" x1="204.714" y1="238.343" x2="207.905" y2="226.665" gradientUnits="userSpaceOnUse">
<stop stop-color="#1C6E9C"/>
<stop offset="1" stop-color="#0B3965"/>
</linearGradient>
<linearGradient id="paint87_linear_3908_3022" x1="283.523" y1="233.047" x2="286.216" y2="223.189" gradientUnits="userSpaceOnUse">
<stop stop-color="#1C6E9C"/>
<stop offset="1" stop-color="#0B3965"/>
</linearGradient>
<linearGradient id="paint88_linear_3908_3022" x1="290.277" y1="221.366" x2="290.42" y2="204.162" gradientUnits="userSpaceOnUse">
<stop stop-color="#0082A6"/>
<stop offset="1" stop-color="#22C1D9"/>
</linearGradient>
<linearGradient id="paint89_linear_3908_3022" x1="240.586" y1="195.106" x2="249.209" y2="231.688" gradientUnits="userSpaceOnUse">
<stop stop-color="#2781B3"/>
<stop offset="1" stop-color="#104274"/>
</linearGradient>
<linearGradient id="paint90_linear_3908_3022" x1="225.115" y1="214.583" x2="225.262" y2="228.183" gradientUnits="userSpaceOnUse">
<stop stop-color="#1C6E9C"/>
<stop offset="1" stop-color="#0B3965"/>
</linearGradient>
<linearGradient id="paint91_linear_3908_3022" x1="227" y1="221.046" x2="235.2" y2="198.096" gradientUnits="userSpaceOnUse">
<stop stop-color="#1C6E9C"/>
<stop offset="1" stop-color="#0B3965"/>
</linearGradient>
<linearGradient id="paint92_linear_3908_3022" x1="271.672" y1="235.542" x2="274.053" y2="226.827" gradientUnits="userSpaceOnUse">
<stop stop-color="#1C6E9C"/>
<stop offset="1" stop-color="#0B3965"/>
</linearGradient>
<linearGradient id="paint93_linear_3908_3022" x1="281.344" y1="205.38" x2="281.906" y2="203.324" gradientUnits="userSpaceOnUse">
<stop stop-color="#1C6E9C"/>
<stop offset="1" stop-color="#0B3965"/>
</linearGradient>
<linearGradient id="paint94_linear_3908_3022" x1="278.885" y1="204.94" x2="283.048" y2="201.654" gradientUnits="userSpaceOnUse">
<stop stop-color="#85DDEB"/>
<stop offset="1" stop-color="#DCF6F9"/>
</linearGradient>
<linearGradient id="paint95_linear_3908_3022" x1="237.937" y1="220.243" x2="237.092" y2="206.944" gradientUnits="userSpaceOnUse">
<stop stop-color="#0082A6"/>
<stop offset="1" stop-color="#22C1D9"/>
</linearGradient>
<linearGradient id="paint96_linear_3908_3022" x1="200.693" y1="216.673" x2="199.831" y2="203.12" gradientUnits="userSpaceOnUse">
<stop stop-color="#0082A6"/>
<stop offset="1" stop-color="#22C1D9"/>
</linearGradient>
<linearGradient id="paint97_linear_3908_3022" x1="265.347" y1="232.026" x2="252.317" y2="213.967" gradientUnits="userSpaceOnUse">
<stop stop-color="#1C6E9C"/>
<stop offset="1" stop-color="#0B3965"/>
</linearGradient>
<linearGradient id="paint98_linear_3908_3022" x1="295.512" y1="226.045" x2="283.868" y2="209.905" gradientUnits="userSpaceOnUse">
<stop stop-color="#1C6E9C"/>
<stop offset="1" stop-color="#0B3965"/>
</linearGradient>
<linearGradient id="paint99_linear_3908_3022" x1="355.155" y1="253.545" x2="346.824" y2="102.658" gradientUnits="userSpaceOnUse">
<stop stop-color="#D48292"/>
<stop offset="0.9946" stop-color="#F4B2BE"/>
</linearGradient>
<linearGradient id="paint100_linear_3908_3022" x1="286.391" y1="111.11" x2="282.799" y2="96.7663" gradientUnits="userSpaceOnUse">
<stop stop-color="#F9BBC8"/>
<stop offset="0.9946" stop-color="#FED1D9"/>
</linearGradient>
<linearGradient id="paint101_linear_3908_3022" x1="316.217" y1="173.019" x2="318.365" y2="189.007" gradientUnits="userSpaceOnUse">
<stop stop-color="#D48292"/>
<stop offset="1" stop-color="white"/>
</linearGradient>
<linearGradient id="paint102_linear_3908_3022" x1="362.047" y1="266.814" x2="374.923" y2="248.995" gradientUnits="userSpaceOnUse">
<stop stop-color="#D48292"/>
<stop offset="1" stop-color="white"/>
</linearGradient>
<clipPath id="clip0_3908_3022">
<rect width="451" height="307" fill="white" transform="translate(-24)"/>
</clipPath>
</defs>
</svg>
