<svg width="390" height="307" viewBox="0 0 390 307" fill="none" xmlns="http://www.w3.org/2000/svg">
<g clip-path="url(#clip0_3908_2718)">
<path d="M353.028 284.755C346.555 288.723 339.866 292.243 333.126 295.254C322.586 299.967 311.92 303.44 301.78 305.502C293.063 307.274 283.241 307.376 272.701 306.357C228.416 302.092 171.435 278.153 129.823 276.177C100.959 274.805 77.2421 276.577 52.5255 268.799C44.3409 266.219 36.0453 262.596 27.4163 257.46C17.8541 251.776 7.87706 244.233 -2.80361 234.204C-5.29971 231.859 -7.84026 229.374 -10.4252 226.747C-23.402 213.551 -29.0905 198.496 -29.7201 183.198C-29.8682 179.536 -29.7349 175.859 -29.3349 172.197C-27.9424 159.306 -24.1353 146.259 -18.558 134.254C-4.97381 104.991 19.1281 81.931 44.4669 82.4877C101.203 83.7501 158.199 29.6548 230.986 42.4278C255.132 46.662 289.048 65.5589 318.283 84.4558C335.052 95.2921 350.28 106.121 361.25 114.197C371.997 122.108 378.656 127.362 378.656 127.362C385.574 134.364 391.292 141.327 395.936 148.203C434.193 204.886 399.247 256.394 353.028 284.755Z" fill="url(#paint0_linear_3908_2718)"/>
<path d="M395.929 148.203L266.302 172.518L-29.7201 183.198C-29.8682 179.536 -29.7349 175.859 -29.3349 172.197C-27.9424 159.306 -24.1353 146.259 -18.558 134.254C-2.31475 123.418 22.8463 102.341 54.4216 102.38C92.1002 102.427 103.225 67.0722 133.038 63.7633C162.85 60.4544 183.078 91.3794 217.461 97.3621C232.756 100.02 284.96 96.876 318.275 84.4636C335.045 95.2999 350.273 106.128 361.243 114.205C371.99 122.116 378.649 127.37 378.649 127.37C385.567 134.364 391.285 141.319 395.929 148.203Z" fill="url(#paint1_linear_3908_2718)"/>
<path d="M353.028 284.755C346.555 288.723 339.866 292.243 333.126 295.254C322.586 299.967 311.92 303.44 301.78 305.502C293.063 307.274 283.241 307.376 272.701 306.357C245.54 297.426 217.446 282.167 201.136 256.943C163.48 198.708 110.595 238.007 91.515 247.934C82.449 252.646 66.628 261.161 52.5254 268.799C44.3408 266.219 36.0452 262.596 27.4162 257.46C17.854 251.776 7.87696 244.233 -2.80371 234.204C22.2536 207.199 94.6481 141.829 188.604 167.688C272.131 190.678 327.867 251.603 353.028 284.755Z" fill="url(#paint2_linear_3908_2718)"/>
<path d="M333.126 295.246C294.314 296.038 253.592 276.977 219.698 243.37C170.939 195.022 86.871 235.584 27.4237 257.46C15.6172 250.443 3.19589 240.602 -10.4179 226.747C-26.4981 210.398 -31.3866 191.18 -29.335 172.197C10.9064 135.25 96.6184 64.0926 191.248 102.341C244.422 123.833 311.52 116.918 361.243 114.197C371.99 122.108 378.649 127.362 378.649 127.362C450.488 200.111 393.877 268.108 333.126 295.246Z" fill="url(#paint3_linear_3908_2718)"/>
<path d="M118.535 178.995L127.327 191.745L173.716 163.188C177.383 160.929 180.79 155.245 178.745 150.705C176.457 145.647 169.109 146.863 164.517 149.764L118.535 178.995Z" fill="url(#paint4_linear_3908_2718)"/>
<path d="M127.779 140.849L136.571 153.598L182.96 125.041C186.626 122.783 190.033 117.098 187.989 112.558C185.7 107.501 178.353 108.716 173.753 111.617L127.779 140.849Z" fill="url(#paint5_linear_3908_2718)"/>
<path d="M116.95 121.489L125.742 134.239L172.131 105.681C175.798 103.423 179.205 97.7385 177.16 93.1985C174.872 88.1411 167.524 89.3564 162.924 92.2576L116.95 121.489Z" fill="url(#paint6_linear_3908_2718)"/>
<path d="M80.9826 98.405L34.0825 149.968L-0.818581 218.31L-23.3354 203.193L-47.0891 216.232C-50.3333 218.185 -51.7925 222.309 -50.5629 226.041C-47.5409 235.223 -40.7192 251.948 -28.6164 262.353C-26.3203 264.329 -23.0984 264.556 -20.5726 262.925L6.05497 246.13C30.2087 232.604 34.0973 244.648 63.9394 228.535C74.983 222.568 108.447 200.942 108.447 200.942L80.9826 98.405Z" fill="url(#paint7_linear_3908_2718)"/>
<path d="M88.4783 132.396C88.4783 132.396 49.9998 155.425 45.5705 169.374C41.1412 183.323 16.3283 210.461 31.5642 214.586C46.8 218.71 107.588 195.532 109.684 178.705C111.773 161.894 88.4783 132.396 88.4783 132.396Z" fill="url(#paint8_linear_3908_2718)"/>
<path d="M435.644 259.546C425.845 272.507 416.35 279.353 398.425 284.245C394.418 285.335 390.181 283.743 387.729 280.207C387.729 280.207 387.729 280.207 387.729 280.199L379.249 267.944C376.13 263.435 371.242 260.691 365.968 260.479C343.451 259.601 282.049 256.825 266.739 252.168C253.206 248.059 230.786 226.253 217.468 212.594C217.454 212.578 217.446 212.57 217.446 212.57C212.224 207.215 208.402 203.114 207.077 201.836C204.566 199.413 202.366 183.7 224.023 196.575C223.735 196.292 210.528 183.206 222.461 180.61C234.023 178.101 243.378 187.699 244.14 188.506C243.289 187.518 232.097 174.322 243.54 175.13C255.421 175.969 259.287 177.215 266.294 182.563C266.028 182.233 259.739 174.298 266.302 172.495C281.449 168.324 289.255 185.676 307.884 196.418C313.209 199.492 319.424 202.024 326.949 203.357L348.969 204.659C348.969 204.659 341.577 202.048 335.23 198.559C327.83 194.489 321.838 189.22 330.623 185.488C346.947 178.548 359.124 185.197 372.886 192.544C382.774 197.821 390.922 202.769 397.706 207.466C405.039 212.531 410.787 217.306 415.431 221.886C426.334 232.628 431.178 242.304 436.259 252.27C437.444 254.622 437.2 257.484 435.644 259.546Z" fill="url(#paint9_linear_3908_2718)"/>
<path d="M373.256 262.518C373.256 262.518 374.516 251.14 360.739 247.769C338.081 245.04 281.634 245.769 265.68 243.26C247.644 240.43 218.372 213.449 217.461 212.602C230.778 226.261 253.199 248.059 266.731 252.175C282.041 256.825 343.444 259.609 365.961 260.487C368.546 260.581 371.027 261.295 373.256 262.518Z" fill="url(#paint10_linear_3908_2718)"/>
<path d="M415.431 221.909C413.883 223.83 411.046 225.736 406.506 227.414C383.404 235.968 230.823 226.088 230.416 206.4C230.356 203.428 237.8 200.629 244.259 200.135C258.08 199.068 278.56 195.061 307.891 196.449C310.246 196.559 312.661 196.708 315.135 196.888C322.327 197.429 329.023 198.002 335.23 198.582C369.59 201.836 389.285 205.608 397.699 207.482C405.032 212.555 410.787 217.33 415.431 221.909Z" fill="url(#paint11_linear_3908_2718)"/>
<path d="M330.467 39.5658C316.861 39.5658 305.825 51.2411 305.825 65.653C305.825 68.264 306.195 70.9143 306.936 73.4077C307.558 75.6189 308.735 78.0183 308.802 78.0888C308.861 78.1986 308.921 78.3162 308.98 78.426L330.475 130.569L351.932 78.4887C353.088 76.3324 353.947 73.9801 354.473 71.5886C354.887 69.7381 355.11 67.8641 355.11 65.6608C355.102 51.249 344.074 39.5658 330.467 39.5658ZM330.467 51.0137C338.104 51.0137 344.296 57.5689 344.296 65.653C344.296 73.7371 338.104 80.2922 330.467 80.2922C322.831 80.2922 316.639 73.7371 316.639 65.653C316.639 57.5689 322.831 51.0137 330.467 51.0137Z" fill="url(#paint12_linear_3908_2718)"/>
<path d="M161.813 204.682H77.368C72.3313 204.682 68.2427 200.362 68.2427 195.022V9.66015C68.2427 4.32825 72.3239 0 77.368 0H161.813C166.85 0 170.939 4.32041 170.939 9.66015V195.03C170.939 200.362 166.85 204.682 161.813 204.682Z" fill="url(#paint13_linear_3908_2718)"/>
<path d="M167.206 192.858V9.66015C167.206 6.51589 164.783 3.95187 161.813 3.95187H77.3679C74.3978 3.95187 71.9758 6.51589 71.9758 9.66015V192.858H167.206Z" fill="url(#paint14_linear_3908_2718)"/>
<path d="M167.206 15.1097H71.9758V34.4692H167.206V15.1097Z" fill="url(#paint15_linear_3908_2718)"/>
<path d="M159.251 114.409V128.93C159.251 130.263 158.228 131.345 156.969 131.345H82.212C80.9529 131.345 79.9307 130.263 79.9307 128.93V114.409C79.9307 113.076 80.9529 111.993 82.212 111.993H156.969C158.228 111.993 159.251 113.076 159.251 114.409Z" fill="white"/>
<path d="M159.251 138.324V152.845C159.251 154.178 158.228 155.26 156.969 155.26H82.212C80.9529 155.26 79.9307 154.178 79.9307 152.845V138.324C79.9307 136.991 80.9529 135.909 82.212 135.909H156.969C158.228 135.909 159.251 136.983 159.251 138.324Z" fill="url(#paint16_linear_3908_2718)"/>
<path d="M159.251 162.239V176.76C159.251 178.093 158.228 179.175 156.969 179.175H82.212C80.9529 179.175 79.9307 178.093 79.9307 176.76V162.239C79.9307 160.906 80.9529 159.824 82.212 159.824H156.969C158.228 159.816 159.251 160.898 159.251 162.239Z" fill="url(#paint17_linear_3908_2718)"/>
<path d="M88.1227 24.1347H86.071C86.071 23.3192 85.6636 22.7939 84.8933 22.7939C83.9748 22.7939 83.6267 23.4604 83.6267 24.4327V25.0913C83.6267 26.0636 83.9971 26.7301 84.8711 26.7301C85.7154 26.7301 86.1376 26.2439 86.1376 25.4285H88.1227C88.1227 27.373 86.945 28.4237 84.9007 28.4237C82.612 28.4237 81.4269 27.177 81.4269 24.7541C81.4269 22.3313 82.612 21.0845 84.9007 21.0845C86.8413 21.1002 88.1227 22.1588 88.1227 24.1347Z" fill="#1E689A"/>
<path d="M93.7667 28.314L93.4852 27.3182H91.1372L90.8558 28.314H88.6559L91.1002 21.2257H93.6037L96.048 28.314H93.7667ZM91.5816 25.7264H93.0334L92.3297 23.2016H92.2927L91.5816 25.7264Z" fill="#1E689A"/>
<path d="M101.907 25.3422L103.396 28.3061H100.981L99.7959 25.7186H98.9959V28.3061H96.848V21.2178H100.944C102.433 21.2178 103.203 22.2372 103.203 23.3898C103.203 24.221 102.773 25.0051 101.907 25.3422ZM100.411 22.8409H98.9959V24.1504H100.411C100.744 24.1504 101.011 23.8759 101.011 23.4917C101.011 23.1075 100.744 22.8409 100.411 22.8409Z" fill="#1E689A"/>
<path d="M113.074 23.1798V23.3053H111.059V23.2661C111.059 22.8975 110.815 22.5447 110.192 22.5447C109.6 22.5447 109.304 22.7642 109.304 23.0073C109.304 24.0658 113.207 23.2347 113.259 25.8614C113.259 27.6257 111.992 28.3314 110.311 28.3314C108.43 28.3314 107 27.8295 107 25.8066H109.037C109.037 26.5671 109.459 26.7004 110.118 26.7004C110.511 26.7004 111.059 26.6691 111.059 26.23C111.059 25.2106 107.104 26.0261 107.104 23.2661C107.104 21.6194 108.526 21 110.111 21C111.733 21 113.044 21.6665 113.074 23.1798Z" fill="#1E689A"/>
<path d="M119.202 28.314V25.6245H116.839V28.314H114.691V21.2257H116.839V23.8132H119.202V21.2257H121.35V28.314H119.202Z" fill="#1E689A"/>
<path d="M127.283 28.314L127.001 27.3182H124.653L124.372 28.314H122.172L124.616 21.2257H127.12L129.564 28.314H127.283ZM125.098 25.7264H126.549L125.846 23.2016H125.809L125.098 25.7264Z" fill="#1E689A"/>
<path d="M135.423 25.3422L136.912 28.3061H134.497L133.312 25.7186H132.512V28.3061H130.364V21.2178H134.46C135.949 21.2178 136.719 22.2372 136.719 23.3898C136.719 24.221 136.289 25.0051 135.423 25.3422ZM133.927 22.8409H132.512V24.1504H133.927C134.26 24.1504 134.527 23.8759 134.527 23.4917C134.527 23.1075 134.26 22.8409 133.927 22.8409Z" fill="#1E689A"/>
<path d="M138.03 28.314V21.2257H140.178V28.314H138.03Z" fill="#1E689A"/>
<path d="M146.511 28.314L143.696 24.8718V28.314H141.719V21.2257H143.6L146.415 24.7149V21.2257H148.392V28.314H146.511Z" fill="#1E689A"/>
<path d="M157.059 23.6895H155.007C155.007 23.0779 154.422 22.7015 153.74 22.7015C152.718 22.7015 152.2 23.3131 152.2 24.3403V24.9989C152.2 26.0261 152.718 26.6377 153.74 26.6377C154.422 26.6377 155.007 26.2692 155.007 25.6968H153.489V24.254H157.059V28.2138H155.948L155.733 27.5159C155.133 28.0648 154.363 28.3392 153.34 28.3392C151.111 28.3392 150 27.0925 150 24.6696C150 22.2467 151.333 21 153.652 21C155.533 21 157.059 21.9017 157.059 23.6895Z" fill="#1E689A"/>
<path d="M160.71 76.8108C160.695 77.6498 160.628 78.4103 160.517 79.1003C160.517 79.1003 160.517 79.1003 160.517 79.1082C159.784 83.7266 157.125 84.9811 155.488 85.3104C145.815 85.3653 105.181 85.53 86.308 85.2948C83.9971 85.2712 81.6565 84.9811 80.1455 83.8912C79.79 83.6325 79.4789 83.3345 79.2196 82.9817C79.0641 82.7621 78.9308 82.5269 78.8123 82.2681C78.5827 81.7271 78.4493 81.0998 78.4493 80.3628C78.4493 76.0659 81.9305 73.6587 91.6705 70.4438C96.8257 68.7423 99.4625 66.0058 102.973 63.8339C105.655 62.1794 108.514 60.9484 111.447 60.0388C112.558 59.6938 113.669 59.388 114.787 59.1292C119.217 58.0864 123.594 57.6943 128.046 57.5532C143.652 57.4277 151.607 65.9588 152.088 66.4841C152.103 66.4998 152.11 66.5076 152.11 66.5076H152.103C152.347 66.735 153.17 67.3466 154.118 68.0288C155.51 69.0325 157.162 70.1929 157.554 70.4674C160.117 72.2551 160.599 74.9995 160.687 76.207C160.725 76.5755 160.71 76.8108 160.71 76.8108Z" fill="url(#paint18_linear_3908_2718)"/>
<path d="M111.469 60.0231C107.388 62.3676 102.877 65.3942 99.3737 68.9305C97.6479 70.6712 91.715 73.6744 87.2413 74.1135C79.1752 74.9132 79.0864 81.8839 78.8271 82.2603C78.5975 81.7193 78.4642 81.092 78.4642 80.3549C78.4642 76.058 81.9454 73.6508 91.6854 70.436C96.8406 68.7345 99.4774 65.998 102.988 63.826C105.67 62.1716 108.536 60.9327 111.469 60.0231Z" fill="url(#paint19_linear_3908_2718)"/>
<path d="M152.658 68.8051C152.347 68.5228 146.755 62.8929 141.548 61.0111C136.623 59.2312 131.682 58.8234 127.046 58.7842C116.787 58.698 108.958 61.0268 100.736 68.4209L99.4033 69.6205L130.156 69.1422L152.658 68.8051Z" fill="url(#paint20_linear_3908_2718)"/>
<path d="M151.881 83.3816C149.118 83.4208 139.719 83.4364 128.845 83.4364C130.853 73.6587 130.993 69.1187 130.993 69.1187L130.142 69.1344C130.142 69.1344 130.008 73.6587 128.001 83.4364C109.047 83.4286 86.108 83.3816 86.108 83.3816C86.108 83.3816 80.1529 83.6011 78.4567 80.3471C78.4567 84.4636 82.412 85.2399 86.308 85.2869C105.173 85.5222 145.815 85.3575 155.488 85.3026C157.125 84.9733 159.776 83.7187 160.517 79.1003C159.954 80.3 157.947 83.2875 151.881 83.3816Z" fill="url(#paint21_linear_3908_2718)"/>
<path d="M147.363 89.9131C150.77 89.9131 153.532 86.9888 153.532 83.3816C153.532 79.7743 150.77 76.85 147.363 76.85C143.955 76.85 141.193 79.7743 141.193 83.3816C141.193 86.9888 143.955 89.9131 147.363 89.9131Z" fill="url(#paint22_linear_3908_2718)"/>
<path d="M147.363 78.5985C144.866 78.5985 142.844 80.7391 142.844 83.3816C142.844 86.024 144.866 88.1646 147.363 88.1646C149.859 88.1646 151.881 86.024 151.881 83.3816C151.881 80.7391 149.859 78.5985 147.363 78.5985Z" fill="#1AAFC6"/>
<path d="M147.363 79.4297C145.303 79.4297 143.63 81.2017 143.63 83.3815C143.63 85.5614 145.303 87.3334 147.363 87.3334C149.422 87.3334 151.096 85.5614 151.096 83.3815C151.096 81.2017 149.422 79.4297 147.363 79.4297Z" fill="url(#paint23_radial_3908_2718)"/>
<path d="M147.363 79.4297C145.303 79.4297 143.63 81.2017 143.63 83.3815C143.63 85.5614 145.303 87.3334 147.363 87.3334C149.422 87.3334 151.096 85.5614 151.096 83.3815C151.096 81.2017 149.422 79.4297 147.363 79.4297Z" fill="url(#paint24_linear_3908_2718)"/>
<path d="M147.363 85.0674C148.242 85.0674 148.955 84.3126 148.955 83.3815C148.955 82.4505 148.242 81.6957 147.363 81.6957C146.483 81.6957 145.77 82.4505 145.77 83.3815C145.77 84.3126 146.483 85.0674 147.363 85.0674Z" fill="#1AAFC6"/>
<path d="M101.137 76.85C97.7294 76.85 94.9666 79.7747 94.9666 83.3816C94.9666 86.9884 97.7294 89.9131 101.137 89.9131C104.544 89.9131 107.306 86.9884 107.306 83.3816C107.306 79.7747 104.544 76.85 101.137 76.85Z" fill="url(#paint25_linear_3908_2718)"/>
<path d="M101.137 78.5985C98.6404 78.5985 96.6183 80.7391 96.6183 83.3816C96.6183 86.024 98.6404 88.1646 101.137 88.1646C103.633 88.1646 105.655 86.024 105.655 83.3816C105.655 80.7391 103.633 78.5985 101.137 78.5985Z" fill="#1AAFC6"/>
<path d="M101.136 79.4297C99.0774 79.4297 97.4034 81.2017 97.4034 83.3815C97.4034 85.5614 99.0774 87.3334 101.136 87.3334C103.196 87.3334 104.87 85.5614 104.87 83.3815C104.87 81.2017 103.196 79.4297 101.136 79.4297Z" fill="url(#paint26_radial_3908_2718)"/>
<path d="M101.136 79.4297C99.0774 79.4297 97.4034 81.2017 97.4034 83.3815C97.4034 85.5614 99.0774 87.3334 101.136 87.3334C103.196 87.3334 104.87 85.5614 104.87 83.3815C104.87 81.2017 103.196 79.4297 101.136 79.4297Z" fill="url(#paint27_linear_3908_2718)"/>
<path d="M101.137 81.6957C100.255 81.6957 99.5441 82.4485 99.5441 83.3815C99.5441 84.3146 100.255 85.0674 101.137 85.0674C102.011 85.0674 102.729 84.3146 102.729 83.3815C102.729 82.4485 102.011 81.6957 101.137 81.6957Z" fill="#1AAFC6"/>
<path d="M151.155 68.1621C151.118 68.1307 144.741 62.5087 137.674 60.7053C135.586 60.1721 133.186 59.8741 130.727 59.7408C131.253 62.9478 131.46 64.4533 131.119 68.4522L151.155 68.1621Z" fill="url(#paint28_linear_3908_2718)"/>
<path d="M129.586 68.4758L101.136 68.9227C104.707 65.7157 108.928 62.1872 118.061 60.2662C118.069 60.2662 118.076 60.2662 118.083 60.2662C121.046 59.8585 125.09 59.5683 129.12 59.6781C129.771 62.9243 130.075 64.3749 129.586 68.4758Z" fill="url(#paint29_linear_3908_2718)"/>
<path d="M109.684 186.499C109.684 187.526 108.899 188.357 107.929 188.357C106.958 188.357 106.173 187.526 106.173 186.499C106.173 185.472 106.958 184.641 107.929 184.641C108.899 184.641 109.684 185.472 109.684 186.499Z" fill="#2DC6D6"/>
<path d="M121.342 186.499C121.342 187.526 120.557 188.357 119.587 188.357C118.617 188.357 117.832 187.526 117.832 186.499C117.832 185.472 118.617 184.641 119.587 184.641C120.557 184.641 121.342 185.472 121.342 186.499Z" fill="#1AAFC6"/>
<path d="M133.001 186.499C133.001 187.526 132.216 188.357 131.245 188.357C130.275 188.357 129.49 187.526 129.49 186.499C129.49 185.472 130.275 184.641 131.245 184.641C132.216 184.641 133.001 185.472 133.001 186.499Z" fill="#2DC6D6"/>
<path d="M323.49 165.587C323.49 165.587 313.742 148.345 307.573 145.922C307.573 145.922 320.535 143.271 332.23 142.636C343.918 142.001 356.791 142.268 359.509 143.758C362.228 145.247 383.478 161.078 383.478 161.078C379.937 165.587 338.963 170.629 323.49 165.587Z" fill="url(#paint30_linear_3908_2718)"/>
<path d="M253.94 159.934C253.94 159.934 260.554 146.541 271.812 144.793C283.071 143.044 295.196 143.624 301.573 145.71C307.95 147.796 311.335 149.223 315.824 157.134C320.312 165.046 321.653 168.465 321.653 168.465L252.799 164.466L253.94 159.934Z" fill="url(#paint31_linear_3908_2718)"/>
<path d="M306.839 212.586L288.418 210.289C288.418 210.289 277.427 181.049 289.226 176.549C301.018 172.048 310.306 190.114 306.839 212.586Z" fill="url(#paint32_linear_3908_2718)"/>
<path d="M244.251 197.006L235.667 195.383C235.667 195.383 231.26 171.381 236.03 169.359C242.681 166.544 246.229 184.178 244.251 197.006Z" fill="url(#paint33_linear_3908_2718)"/>
<path d="M295.87 222.944C304.136 220.192 302.825 182.147 293.929 180.665C293.403 180.579 291.159 180.736 302.654 180.203C306.884 180.007 309.306 189.784 310.009 194.215C312.091 207.38 309.461 222.403 304.447 222.638C292.789 223.187 295.233 223.156 295.87 222.944Z" fill="url(#paint34_linear_3908_2718)"/>
<path d="M294.388 180.783C290.418 179.403 287.167 187.722 287.13 199.358C287.093 210.994 290.27 221.548 294.24 222.928C298.21 224.308 301.462 215.997 301.499 204.353C301.536 192.717 298.351 182.163 294.388 180.783Z" fill="url(#paint35_linear_3908_2718)"/>
<path d="M368.368 194.489C368.368 178.854 377.049 174.777 381.337 175.561C382.071 175.522 384.337 175.435 390.277 175.153C395.677 174.902 403.217 182.288 403.202 196.802C403.187 207.623 398.477 218.02 392.07 217.589C381.959 218.059 380.137 218.106 380.248 217.965C371.012 217.855 368.368 205.513 368.368 194.489Z" fill="url(#paint36_linear_3908_2718)"/>
<path d="M237.785 173.718C246.377 173.499 246.555 173.075 247.814 174.651C252.673 180.72 252.969 204.439 248.199 209.348C247.259 210.312 247.525 210.053 238.674 210.289C245.429 210.101 244.874 173.53 237.785 173.718Z" fill="url(#paint37_linear_3908_2718)"/>
<path d="M238.4 173.82C235.467 172.746 233.015 180.007 232.926 190.051C232.83 200.087 235.134 209.105 238.059 210.179C240.993 211.261 243.444 203.992 243.533 193.948C243.629 183.911 241.333 174.902 238.4 173.82Z" fill="url(#paint38_linear_3908_2718)"/>
<path d="M233.386 183.308C234.889 177.694 234.956 169.539 240.319 173.412C242.348 174.879 243.415 179.175 243.903 185.088C244.192 188.577 244.281 192.639 244.259 196.998L288.419 210.281C288.419 210.281 287.108 206.69 286.811 199.249C286.671 195.461 286.782 191.188 287.478 186.915C287.959 183.951 289.056 178.823 293.27 178.187C301.121 178.697 304.454 189.784 305.862 199.954C306.528 204.776 306.765 209.395 306.839 212.57L327.149 214.782C342.733 214.491 385.248 209.065 395.166 206.972C405.084 204.871 407.209 197.006 407.209 197.006C409.328 188.898 405.447 177.458 402.01 169.821C399.647 164.568 384.678 159.926 384.678 159.926C373.412 165.391 333.563 165.987 328.43 165.673L328.415 165.571C328.393 165.571 316.394 165.548 316.394 165.571C301.862 165.446 297.536 165.407 297.536 165.407C296.766 165.367 258.813 163.572 255.969 163.572C252.977 163.572 250.14 161.572 250.14 161.572L246.362 164.238C238.489 164.654 235.423 167.241 235.423 167.241C231.104 171.923 233.386 183.308 233.386 183.308Z" fill="url(#paint39_linear_3908_2718)"/>
<path d="M272.39 143.483H293.618L308.972 146.165C308.972 146.165 345.903 142.456 359.028 144.957C360.191 145.396 361.228 145.859 362.131 146.376C366.924 149.615 378.078 157.683 381.9 161.086L384.693 159.941C384.693 159.941 365.694 143.883 358.132 142.385C354.591 141.68 348.555 139.931 341.918 139.163C337.074 138.206 285.648 139.516 272.39 143.483Z" fill="url(#paint40_linear_3908_2718)"/>
<path d="M316.787 165.587L316.165 164.089C313.454 159.534 310.461 149.419 305.499 148C302.551 147.153 297.24 145.82 291.181 145.067L280.478 164.623C280.478 164.623 279.471 164.575 278.967 164.552L290.13 144.942C281.175 143.946 270.798 144.322 263.954 149.395C262.146 150.736 260.547 152.108 259.124 153.441L256.754 163.603C256.399 163.595 256.14 163.587 255.977 163.587C252.984 163.587 250.147 161.588 250.147 161.588L250.007 161.69C251.073 159.808 254.888 153.99 264.546 146.839C276.353 138.088 301.395 144.675 308.958 146.173C316.505 147.67 328.371 165.532 328.415 165.595H316.787V165.587Z" fill="url(#paint41_linear_3908_2718)"/>
<path d="M305.862 199.962C306.528 204.784 306.765 209.403 306.839 212.578L327.149 214.789C342.733 214.499 385.248 209.073 395.166 206.98C405.084 204.878 407.209 197.014 407.209 197.014C408.224 193.117 407.839 188.514 406.891 184.115C402.625 185.315 393.988 187.314 379.226 189.039C356.398 191.705 321.334 189.541 321.334 189.541L321.127 192.874C322.231 200.04 318.764 198.206 314.831 199.037C312.572 199.523 308.728 199.813 305.862 199.962Z" fill="url(#paint42_linear_3908_2718)"/>
<path d="M285.33 164.85C285.641 164.905 310.654 169.108 316.52 173.499C322.423 177.913 321.342 189.549 321.342 189.549C321.342 189.549 356.406 191.713 379.234 189.047C393.996 187.322 402.632 185.323 406.898 184.123C406.358 181.622 405.624 179.183 404.869 176.988C404.306 175.349 403.721 173.844 403.18 172.534C402.758 171.499 402.358 170.597 402.017 169.845C399.654 164.591 384.685 159.949 384.685 159.949C384.685 159.949 398.129 165.955 398.943 173.506C399.758 181.057 395.477 182.68 395.477 182.68C395.477 182.68 371.545 185.346 360.206 185.88C348.866 186.413 346.036 174.847 342.259 173.506C338.481 172.173 316.342 165.595 316.342 165.595C315.942 165.587 297.544 165.43 297.544 165.43C297.41 165.414 292.107 165.156 285.33 164.85Z" fill="url(#paint43_linear_3908_2718)"/>
<path d="M244.252 197.006L288.411 210.289C288.411 210.289 287.1 206.697 286.804 199.256L244.185 188.585C244.481 192.074 244.281 192.639 244.252 197.006Z" fill="url(#paint44_linear_3908_2718)"/>
<path d="M255.762 163.344C255.762 163.344 250.059 163.642 249.229 162.011C248.399 160.388 248.051 156.946 251.236 156.57C254.421 156.193 256.902 157.691 256.902 157.691L255.762 163.344Z" fill="url(#paint45_linear_3908_2718)"/>
<path d="M255.221 162.725C255.221 162.725 250.547 162.968 249.873 161.635C249.199 160.302 248.903 157.487 251.518 157.181C254.125 156.876 256.154 158.099 256.154 158.099L255.221 162.725Z" fill="url(#paint46_linear_3908_2718)"/>
<path d="M343.155 180.203C343.155 180.203 325.156 180.336 323.082 180.203C321.001 180.069 325.779 185.001 325.779 185.001L346.125 184.123L343.155 180.203Z" fill="url(#paint47_linear_3908_2718)"/>
<path d="M294.344 192.67C292.692 192.097 291.337 195.563 291.322 200.409C291.307 205.263 292.633 209.654 294.285 210.234C295.936 210.806 297.292 207.34 297.307 202.495C297.322 197.641 295.996 193.242 294.344 192.67Z" fill="url(#paint48_linear_3908_2718)"/>
<path d="M238.304 183.762C237.037 183.3 235.985 186.428 235.941 190.757C235.897 195.085 236.889 198.974 238.156 199.437C239.422 199.899 240.474 196.771 240.518 192.442C240.563 188.114 239.57 184.225 238.304 183.762Z" fill="url(#paint49_linear_3908_2718)"/>
<path d="M104.055 123.645C103.788 129.44 100.47 137.516 86.5302 143.758C73.3534 149.654 62.1765 157.534 54.666 163.548C48.5553 168.441 44.2446 175.427 42.4447 183.308C39.3709 196.739 31.927 217.157 18.7206 223.07C-29.5053 244.664 -38.3861 225.9 -23.3354 203.185L-13.514 194.756L21.7574 151.614C25.5497 147.639 30.0975 144.565 35.0971 142.613L97.1886 118.329C97.6553 118.149 98.1293 118.039 98.5885 118.008C101.544 117.78 104.218 120.321 104.055 123.645Z" fill="url(#paint50_linear_3908_2718)"/>
<path d="M91.9742 126.805C87.9523 128.224 85.4488 125.386 84.2489 123.394L97.2035 118.329C97.6701 118.149 98.1441 118.039 98.6033 118.008C99.544 122.179 96.7961 125.104 91.9742 126.805Z" fill="url(#paint51_linear_3908_2718)"/>
</g>
<defs>
<linearGradient id="paint0_linear_3908_2718" x1="234.635" y1="112.097" x2="-73.5811" y2="575.874" gradientUnits="userSpaceOnUse">
<stop stop-color="#29D6EF"/>
<stop offset="1" stop-color="#18A5BD"/>
</linearGradient>
<linearGradient id="paint1_linear_3908_2718" x1="229.136" y1="52.0107" x2="139.635" y2="228.146" gradientUnits="userSpaceOnUse">
<stop stop-color="#29D6EF"/>
<stop offset="0.9946" stop-color="white"/>
</linearGradient>
<linearGradient id="paint2_linear_3908_2718" x1="210.606" y1="181.2" x2="152.808" y2="294.945" gradientUnits="userSpaceOnUse">
<stop stop-color="#29D6EF"/>
<stop offset="0.9946" stop-color="white"/>
</linearGradient>
<linearGradient id="paint3_linear_3908_2718" x1="271.291" y1="378.917" x2="132.838" y2="83.7387" gradientUnits="userSpaceOnUse">
<stop stop-color="#85DDEB"/>
<stop offset="1" stop-color="#DCF6F9"/>
</linearGradient>
<linearGradient id="paint4_linear_3908_2718" x1="147.029" y1="197.967" x2="149.508" y2="161.702" gradientUnits="userSpaceOnUse">
<stop stop-color="#D48292"/>
<stop offset="0.9946" stop-color="#F4B2BE"/>
</linearGradient>
<linearGradient id="paint5_linear_3908_2718" x1="156.273" y1="159.817" x2="158.751" y2="123.552" gradientUnits="userSpaceOnUse">
<stop stop-color="#D48292"/>
<stop offset="0.9946" stop-color="#F4B2BE"/>
</linearGradient>
<linearGradient id="paint6_linear_3908_2718" x1="145.44" y1="140.46" x2="147.918" y2="104.194" gradientUnits="userSpaceOnUse">
<stop stop-color="#D48292"/>
<stop offset="0.9946" stop-color="#F4B2BE"/>
</linearGradient>
<linearGradient id="paint7_linear_3908_2718" x1="30.1122" y1="238.993" x2="22.6414" y2="110.956" gradientUnits="userSpaceOnUse">
<stop stop-color="#D48292"/>
<stop offset="0.9946" stop-color="#F4B2BE"/>
</linearGradient>
<linearGradient id="paint8_linear_3908_2718" x1="58.6971" y1="116.731" x2="70.0054" y2="196.361" gradientUnits="userSpaceOnUse">
<stop stop-color="#D48292"/>
<stop offset="1" stop-color="white"/>
</linearGradient>
<linearGradient id="paint9_linear_3908_2718" x1="313.314" y1="280.899" x2="324.742" y2="210.726" gradientUnits="userSpaceOnUse">
<stop stop-color="#D48292"/>
<stop offset="0.9946" stop-color="#F4B2BE"/>
</linearGradient>
<linearGradient id="paint10_linear_3908_2718" x1="290.57" y1="269.387" x2="294.428" y2="246.525" gradientUnits="userSpaceOnUse">
<stop stop-color="#D48292"/>
<stop offset="1" stop-color="white"/>
</linearGradient>
<linearGradient id="paint11_linear_3908_2718" x1="318.753" y1="227.548" x2="348.487" y2="141.313" gradientUnits="userSpaceOnUse">
<stop offset="0.00537634" stop-color="#F4B2BE"/>
<stop offset="1" stop-color="white"/>
</linearGradient>
<linearGradient id="paint12_linear_3908_2718" x1="324.819" y1="40.2541" x2="346.329" y2="126.607" gradientUnits="userSpaceOnUse">
<stop stop-color="#2781B3"/>
<stop offset="1" stop-color="#104274"/>
</linearGradient>
<linearGradient id="paint13_linear_3908_2718" x1="95.7651" y1="-4.84897" x2="148.829" y2="208.185" gradientUnits="userSpaceOnUse">
<stop stop-color="#2781B3"/>
<stop offset="1" stop-color="#104274"/>
</linearGradient>
<linearGradient id="paint14_linear_3908_2718" x1="171.29" y1="237.536" x2="64.5867" y2="-14.4504" gradientUnits="userSpaceOnUse">
<stop stop-color="#85DDEB"/>
<stop offset="1" stop-color="#DCF6F9"/>
</linearGradient>
<linearGradient id="paint15_linear_3908_2718" x1="105.585" y1="2.31743" x2="133.106" y2="41.7215" gradientUnits="userSpaceOnUse">
<stop stop-color="#55CBE7"/>
<stop offset="1" stop-color="#6FD5ED"/>
</linearGradient>
<linearGradient id="paint16_linear_3908_2718" x1="107.762" y1="126.605" x2="131.006" y2="159.885" gradientUnits="userSpaceOnUse">
<stop stop-color="#55CBE7"/>
<stop offset="1" stop-color="#6FD5ED"/>
</linearGradient>
<linearGradient id="paint17_linear_3908_2718" x1="107.762" y1="150.519" x2="131.006" y2="183.799" gradientUnits="userSpaceOnUse">
<stop stop-color="#55CBE7"/>
<stop offset="1" stop-color="#6FD5ED"/>
</linearGradient>
<linearGradient id="paint18_linear_3908_2718" x1="86.7119" y1="40.4304" x2="136.251" y2="90.8415" gradientUnits="userSpaceOnUse">
<stop stop-color="#FA7964"/>
<stop offset="1" stop-color="#F64B4B"/>
</linearGradient>
<linearGradient id="paint19_linear_3908_2718" x1="91.2387" y1="66.4107" x2="110.864" y2="87.6058" gradientUnits="userSpaceOnUse">
<stop stop-color="#FF826E"/>
<stop offset="1" stop-color="#FB5353"/>
</linearGradient>
<linearGradient id="paint20_linear_3908_2718" x1="124.549" y1="60.5532" x2="128.092" y2="79.0892" gradientUnits="userSpaceOnUse">
<stop stop-color="#FCBDB3"/>
<stop offset="0.768" stop-color="#EE5F5D"/>
<stop offset="1" stop-color="#EA4242"/>
</linearGradient>
<linearGradient id="paint21_linear_3908_2718" x1="118.541" y1="74.3965" x2="123.214" y2="98.8423" gradientUnits="userSpaceOnUse">
<stop stop-color="#FCBDB3"/>
<stop offset="0.768" stop-color="#EE5F5D"/>
<stop offset="1" stop-color="#EA4242"/>
</linearGradient>
<linearGradient id="paint22_linear_3908_2718" x1="146.99" y1="81.1118" x2="148.425" y2="88.9198" gradientUnits="userSpaceOnUse">
<stop stop-color="#2781B3"/>
<stop offset="1" stop-color="#104274"/>
</linearGradient>
<radialGradient id="paint23_radial_3908_2718" cx="0" cy="0" r="1" gradientUnits="userSpaceOnUse" gradientTransform="translate(144.866 78.7855) scale(8.64343 9.15009)">
<stop stop-color="#46DFF5"/>
<stop offset="1" stop-color="#38BFD5"/>
</radialGradient>
<linearGradient id="paint24_linear_3908_2718" x1="143.628" y1="83.3802" x2="151.096" y2="83.3802" gradientUnits="userSpaceOnUse">
<stop stop-color="#46DFF5"/>
<stop offset="1" stop-color="#38BFD5"/>
</linearGradient>
<linearGradient id="paint25_linear_3908_2718" x1="100.763" y1="81.1118" x2="102.198" y2="88.9199" gradientUnits="userSpaceOnUse">
<stop stop-color="#2781B3"/>
<stop offset="1" stop-color="#104274"/>
</linearGradient>
<radialGradient id="paint26_radial_3908_2718" cx="0" cy="0" r="1" gradientUnits="userSpaceOnUse" gradientTransform="translate(98.6388 78.7855) scale(8.64341 9.15009)">
<stop stop-color="#46DFF5"/>
<stop offset="1" stop-color="#38BFD5"/>
</radialGradient>
<linearGradient id="paint27_linear_3908_2718" x1="97.4009" y1="83.3802" x2="104.87" y2="83.3802" gradientUnits="userSpaceOnUse">
<stop stop-color="#46DFF5"/>
<stop offset="1" stop-color="#38BFD5"/>
</linearGradient>
<linearGradient id="paint28_linear_3908_2718" x1="141.431" y1="71.7197" x2="139.969" y2="56.5354" gradientUnits="userSpaceOnUse">
<stop stop-color="#85DDEB"/>
<stop offset="1" stop-color="#DCF6F9"/>
</linearGradient>
<linearGradient id="paint29_linear_3908_2718" x1="124.581" y1="74.0037" x2="113.762" y2="64.0965" gradientUnits="userSpaceOnUse">
<stop stop-color="#85DDEB"/>
<stop offset="1" stop-color="#DCF6F9"/>
</linearGradient>
<linearGradient id="paint30_linear_3908_2718" x1="403.952" y1="205.594" x2="326.065" y2="147.394" gradientUnits="userSpaceOnUse">
<stop stop-color="#85DDEB"/>
<stop offset="1" stop-color="#DCF6F9"/>
</linearGradient>
<linearGradient id="paint31_linear_3908_2718" x1="339.661" y1="205.873" x2="273.024" y2="156.079" gradientUnits="userSpaceOnUse">
<stop stop-color="#85DDEB"/>
<stop offset="1" stop-color="#DCF6F9"/>
</linearGradient>
<linearGradient id="paint32_linear_3908_2718" x1="303.145" y1="224.238" x2="297.407" y2="204.366" gradientUnits="userSpaceOnUse">
<stop stop-color="#1C6E9C"/>
<stop offset="1" stop-color="#0B3965"/>
</linearGradient>
<linearGradient id="paint33_linear_3908_2718" x1="244.263" y1="204.732" x2="240.074" y2="190.224" gradientUnits="userSpaceOnUse">
<stop stop-color="#1C6E9C"/>
<stop offset="1" stop-color="#0B3965"/>
</linearGradient>
<linearGradient id="paint34_linear_3908_2718" x1="309" y1="233.04" x2="302.69" y2="211.186" gradientUnits="userSpaceOnUse">
<stop stop-color="#1C6E9C"/>
<stop offset="1" stop-color="#0B3965"/>
</linearGradient>
<linearGradient id="paint35_linear_3908_2718" x1="294.353" y1="207.143" x2="294.013" y2="168.705" gradientUnits="userSpaceOnUse">
<stop stop-color="#0082A6"/>
<stop offset="1" stop-color="#22C1D9"/>
</linearGradient>
<linearGradient id="paint36_linear_3908_2718" x1="394.129" y1="229.239" x2="387.691" y2="206.94" gradientUnits="userSpaceOnUse">
<stop stop-color="#1C6E9C"/>
<stop offset="1" stop-color="#0B3965"/>
</linearGradient>
<linearGradient id="paint37_linear_3908_2718" x1="250.571" y1="219.044" x2="245.137" y2="200.221" gradientUnits="userSpaceOnUse">
<stop stop-color="#1C6E9C"/>
<stop offset="1" stop-color="#0B3965"/>
</linearGradient>
<linearGradient id="paint38_linear_3908_2718" x1="238.267" y1="196.559" x2="237.975" y2="163.443" gradientUnits="userSpaceOnUse">
<stop stop-color="#0082A6"/>
<stop offset="1" stop-color="#22C1D9"/>
</linearGradient>
<linearGradient id="paint39_linear_3908_2718" x1="358.85" y1="137.417" x2="95.3247" y2="422.017" gradientUnits="userSpaceOnUse">
<stop stop-color="#FF826E"/>
<stop offset="1" stop-color="#FB5353"/>
</linearGradient>
<linearGradient id="paint40_linear_3908_2718" x1="365.93" y1="109.07" x2="310.92" y2="165.048" gradientUnits="userSpaceOnUse">
<stop stop-color="#FA7964"/>
<stop offset="1" stop-color="#F64B4B"/>
</linearGradient>
<linearGradient id="paint41_linear_3908_2718" x1="319.963" y1="128.161" x2="275.437" y2="173.47" gradientUnits="userSpaceOnUse">
<stop stop-color="#FA7964"/>
<stop offset="1" stop-color="#F64B4B"/>
</linearGradient>
<linearGradient id="paint42_linear_3908_2718" x1="359.394" y1="181.934" x2="348.812" y2="237.297" gradientUnits="userSpaceOnUse">
<stop stop-color="#FCBDB3"/>
<stop offset="0.768" stop-color="#EE5F5D"/>
<stop offset="1" stop-color="#EA4242"/>
</linearGradient>
<linearGradient id="paint43_linear_3908_2718" x1="348.736" y1="159.11" x2="339.461" y2="207.634" gradientUnits="userSpaceOnUse">
<stop stop-color="#FCBDB3"/>
<stop offset="0.768" stop-color="#EE5F5D"/>
<stop offset="1" stop-color="#EA4242"/>
</linearGradient>
<linearGradient id="paint44_linear_3908_2718" x1="267.082" y1="194.879" x2="264.136" y2="210.292" gradientUnits="userSpaceOnUse">
<stop stop-color="#FCBDB3"/>
<stop offset="0.768" stop-color="#EE5F5D"/>
<stop offset="1" stop-color="#EA4242"/>
</linearGradient>
<linearGradient id="paint45_linear_3908_2718" x1="257.789" y1="154.441" x2="250.799" y2="161.555" gradientUnits="userSpaceOnUse">
<stop stop-color="#FA7964"/>
<stop offset="1" stop-color="#F64B4B"/>
</linearGradient>
<linearGradient id="paint46_linear_3908_2718" x1="259.018" y1="164.939" x2="251.119" y2="159.037" gradientUnits="userSpaceOnUse">
<stop stop-color="#85DDEB"/>
<stop offset="1" stop-color="#DCF6F9"/>
</linearGradient>
<linearGradient id="paint47_linear_3908_2718" x1="333.61" y1="194.394" x2="335.327" y2="168.813" gradientUnits="userSpaceOnUse">
<stop stop-color="#0082A6"/>
<stop offset="1" stop-color="#22C1D9"/>
</linearGradient>
<linearGradient id="paint48_linear_3908_2718" x1="283.68" y1="217.079" x2="309.164" y2="183.651" gradientUnits="userSpaceOnUse">
<stop stop-color="#1C6E9C"/>
<stop offset="1" stop-color="#0B3965"/>
</linearGradient>
<linearGradient id="paint49_linear_3908_2718" x1="228.73" y1="205.566" x2="251.506" y2="175.691" gradientUnits="userSpaceOnUse">
<stop stop-color="#1C6E9C"/>
<stop offset="1" stop-color="#0B3965"/>
</linearGradient>
<linearGradient id="paint50_linear_3908_2718" x1="25.2034" y1="253.278" x2="41.4318" y2="153.635" gradientUnits="userSpaceOnUse">
<stop stop-color="#D48292"/>
<stop offset="0.9946" stop-color="#F4B2BE"/>
</linearGradient>
<linearGradient id="paint51_linear_3908_2718" x1="93.0185" y1="127.446" x2="90.9225" y2="119.526" gradientUnits="userSpaceOnUse">
<stop stop-color="#F9BBC8"/>
<stop offset="0.9946" stop-color="#FED1D9"/>
</linearGradient>
<clipPath id="clip0_3908_2718">
<rect width="488.007" height="307" fill="white" transform="translate(-51)"/>
</clipPath>
</defs>
</svg>
